STARTFONT 2.1
FONT -Adobe-Utopia-Regular-I-Normal--19-180-75-75-P-100-ISO10646-1
SIZE 18 75 75
FONTBOUNDINGBOX 25 28 -4 -9
COMMENT $Xorg: $
COMMENT ISO10646-1 extension by Markus Kuhn <mkuhn@acm.org>, 2001-03-20
STARTPROPERTIES 28
FOUNDRY "Adobe"
FAMILY_NAME "Utopia"
WEIGHT_NAME "Regular"
SLANT "I"
SETWIDTH_NAME "Normal"
ADD_STYLE_NAME ""
PIXEL_SIZE 19
POINT_SIZE 180
RESOLUTION_X 75
RESOLUTION_Y 75
SPACING "P"
AVERAGE_WIDTH 100
CHARSET_REGISTRY "ISO10646"
CHARSET_ENCODING "1"
CAP_HEIGHT 13
X_HEIGHT 9
RELATIVE_SETWIDTH 50
RELATIVE_WEIGHT 50
WEIGHT 130
FACE_NAME "Utopia Italic"
COPYRIGHT "Copyright (c) 1989, 1991 Adobe Systems Incorporated.  All rights reserved."
NOTICE "Utopia is a registered trademark of Adobe Systems Incorporated."
DESTINATION 0
FONT_ASCENT 14
FONT_DESCENT 4
DEFAULT_CHAR 0
_ADOBE_PSFONT "Utopia-Italic"
_DEC_DEVICE_FONTNAMES "PS=Utopia-Italic"
ENDPROPERTIES
CHARS 723
STARTCHAR char0
ENCODING 0
SWIDTH 775 0
DWIDTH 14 0
BBX 13 13 0 0
BITMAP
AAA8
0000
8008
0000
8008
0000
8008
0000
8008
0000
8008
0000
AAA8
ENDCHAR
STARTCHAR space
ENCODING 32
SWIDTH 225 0
DWIDTH 4 0
BBX 0 0 0 0
BITMAP
ENDCHAR
STARTCHAR exclam
ENCODING 33
SWIDTH 240 0
DWIDTH 5 0
BBX 4 13 0 0
BITMAP
30
30
30
20
60
60
60
40
40
00
00
C0
C0
ENDCHAR
STARTCHAR quotedbl
ENCODING 34
SWIDTH 402 0
DWIDTH 7 0
BBX 5 5 2 8
BITMAP
D8
D8
90
90
90
ENDCHAR
STARTCHAR numbersign
ENCODING 35
SWIDTH 530 0
DWIDTH 10 0
BBX 9 12 0 0
BITMAP
0900
0900
0900
3F80
1200
1200
2400
FF00
2400
4800
4800
4800
ENDCHAR
STARTCHAR dollar
ENCODING 36
SWIDTH 530 0
DWIDTH 10 0
BBX 9 15 0 -1
BITMAP
0200
0F00
3580
6580
6400
6800
7800
3E00
0F00
0B00
1300
D300
D600
7800
2000
ENDCHAR
STARTCHAR percent
ENCODING 37
SWIDTH 826 0
DWIDTH 15 0
BBX 13 13 1 0
BITMAP
3820
47C0
C440
8480
8D00
8900
7270
0488
0588
0908
1118
1110
20E0
ENDCHAR
STARTCHAR ampersand
ENCODING 38
SWIDTH 725 0
DWIDTH 14 0
BBX 12 13 1 0
BITMAP
0F00
1980
3180
3100
1200
3C00
6C30
C630
C220
C340
C180
61C0
3E70
ENDCHAR
STARTCHAR quotesingle
ENCODING 39
SWIDTH 216 0
DWIDTH 5 0
BBX 2 5 3 8
BITMAP
C0
C0
80
80
80
ENDCHAR
STARTCHAR parenleft
ENCODING 40
SWIDTH 350 0
DWIDTH 6 0
BBX 6 16 1 -3
BITMAP
0C
10
20
20
40
40
40
C0
80
80
80
80
80
80
40
20
ENDCHAR
STARTCHAR parenright
ENCODING 41
SWIDTH 350 0
DWIDTH 6 0
BBX 6 16 0 -3
BITMAP
10
08
04
04
04
04
04
04
0C
08
08
08
10
10
20
C0
ENDCHAR
STARTCHAR asterisk
ENCODING 42
SWIDTH 412 0
DWIDTH 9 0
BBX 8 8 0 5
BITMAP
08
49
2A
1C
38
54
92
10
ENDCHAR
STARTCHAR plus
ENCODING 43
SWIDTH 570 0
DWIDTH 10 0
BBX 9 9 0 0
BITMAP
0800
0800
0800
0800
FF80
0800
0800
0800
0800
ENDCHAR
STARTCHAR comma
ENCODING 44
SWIDTH 265 0
DWIDTH 5 0
BBX 3 5 -1 -3
BITMAP
60
60
40
40
80
ENDCHAR
STARTCHAR hyphen
ENCODING 45
SWIDTH 392 0
DWIDTH 7 0
BBX 5 1 1 4
BITMAP
F8
ENDCHAR
STARTCHAR period
ENCODING 46
SWIDTH 265 0
DWIDTH 5 0
BBX 2 2 0 0
BITMAP
C0
C0
ENDCHAR
STARTCHAR slash
ENCODING 47
SWIDTH 270 0
DWIDTH 5 0
BBX 4 13 0 0
BITMAP
10
10
10
20
20
20
40
40
40
40
80
80
80
ENDCHAR
STARTCHAR zero
ENCODING 48
SWIDTH 530 0
DWIDTH 10 0
BBX 9 13 0 0
BITMAP
0E00
1100
2180
6180
6180
6180
C180
C300
C300
C300
C200
4400
3800
ENDCHAR
STARTCHAR one
ENCODING 49
SWIDTH 530 0
DWIDTH 10 0
BBX 6 13 1 0
BITMAP
0C
3C
0C
0C
18
18
18
18
30
30
30
30
FC
ENDCHAR
STARTCHAR two
ENCODING 50
SWIDTH 530 0
DWIDTH 10 0
BBX 9 13 0 0
BITMAP
1F00
3380
6180
6180
0180
0300
0600
1800
3000
6000
C100
FF00
FF00
ENDCHAR
STARTCHAR three
ENCODING 51
SWIDTH 530 0
DWIDTH 10 0
BBX 9 13 0 0
BITMAP
1F00
3180
6180
6180
0300
1E00
0700
0300
0300
0300
C300
C600
7C00
ENDCHAR
STARTCHAR four
ENCODING 52
SWIDTH 530 0
DWIDTH 10 0
BBX 9 13 0 0
BITMAP
0C00
0C00
1900
1B00
3300
2300
6600
4600
8600
FF80
0C00
0C00
3F00
ENDCHAR
STARTCHAR five
ENCODING 53
SWIDTH 530 0
DWIDTH 10 0
BBX 9 13 0 0
BITMAP
3F80
3F00
2000
2000
4000
7E00
4700
0300
0300
0300
C300
C600
7800
ENDCHAR
STARTCHAR six
ENCODING 54
SWIDTH 530 0
DWIDTH 10 0
BBX 9 13 0 0
BITMAP
0F00
1180
2180
6000
6000
7E00
E300
C300
C300
C300
C300
4600
3C00
ENDCHAR
STARTCHAR seven
ENCODING 55
SWIDTH 530 0
DWIDTH 10 0
BBX 8 13 1 0
BITMAP
FF
FF
86
04
08
18
30
30
60
60
C0
C0
C0
ENDCHAR
STARTCHAR eight
ENCODING 56
SWIDTH 530 0
DWIDTH 10 0
BBX 9 13 0 0
BITMAP
1F00
3180
6180
6180
6180
3300
3E00
6600
C300
C300
C300
C600
7C00
ENDCHAR
STARTCHAR nine
ENCODING 57
SWIDTH 530 0
DWIDTH 10 0
BBX 9 13 0 0
BITMAP
1E00
3100
6180
6180
6180
6180
6380
3F00
0300
0300
C200
C400
7800
ENDCHAR
STARTCHAR colon
ENCODING 58
SWIDTH 265 0
DWIDTH 5 0
BBX 3 9 0 0
BITMAP
60
60
00
00
00
00
00
C0
C0
ENDCHAR
STARTCHAR semicolon
ENCODING 59
SWIDTH 265 0
DWIDTH 5 0
BBX 4 12 -1 -3
BITMAP
30
30
00
00
00
00
00
60
60
40
40
80
ENDCHAR
STARTCHAR less
ENCODING 60
SWIDTH 570 0
DWIDTH 10 0
BBX 9 9 0 0
BITMAP
0080
0300
0C00
3000
C000
3000
0C00
0300
0080
ENDCHAR
STARTCHAR equal
ENCODING 61
SWIDTH 570 0
DWIDTH 10 0
BBX 9 5 0 2
BITMAP
FF80
0000
0000
0000
FF80
ENDCHAR
STARTCHAR greater
ENCODING 62
SWIDTH 570 0
DWIDTH 10 0
BBX 9 9 0 0
BITMAP
8000
6000
1800
0600
0180
0600
1800
6000
8000
ENDCHAR
STARTCHAR question
ENCODING 63
SWIDTH 425 0
DWIDTH 9 0
BBX 7 13 1 0
BITMAP
3C
46
C6
0C
18
60
C0
C0
70
00
00
C0
C0
ENDCHAR
STARTCHAR at
ENCODING 64
SWIDTH 794 0
DWIDTH 14 0
BBX 13 13 0 0
BITMAP
0780
1860
2010
43D0
4CC8
88C8
9988
9988
9A90
4CE0
4000
3060
0F80
ENDCHAR
STARTCHAR A
ENCODING 65
SWIDTH 624 0
DWIDTH 12 0
BBX 12 13 -1 0
BITMAP
0180
0380
0380
0580
04C0
08C0
08C0
1FC0
10C0
2060
2060
4060
E0F0
ENDCHAR
STARTCHAR B
ENCODING 66
SWIDTH 632 0
DWIDTH 12 0
BBX 11 13 0 0
BITMAP
3F80
18C0
1860
1860
3060
30C0
3F80
3180
60C0
60C0
60C0
6180
FF00
ENDCHAR
STARTCHAR C
ENCODING 67
SWIDTH 661 0
DWIDTH 13 0
BBX 11 13 1 0
BITMAP
07C0
1860
3020
6000
6000
C000
C000
C000
C000
C040
C0C0
6180
3E00
ENDCHAR
STARTCHAR D
ENCODING 68
SWIDTH 763 0
DWIDTH 14 0
BBX 13 13 0 0
BITMAP
3FE0
1830
1818
1818
3018
3018
3018
3018
6030
6030
6060
60C0
FF00
ENDCHAR
STARTCHAR E
ENCODING 69
SWIDTH 596 0
DWIDTH 11 0
BBX 11 13 0 0
BITMAP
3FE0
1860
1820
1800
3000
3080
3F80
3080
6000
6000
6080
6180
FF80
ENDCHAR
STARTCHAR F
ENCODING 70
SWIDTH 571 0
DWIDTH 11 0
BBX 11 13 0 0
BITMAP
3FE0
1860
1820
1800
3000
3080
3F80
3080
6000
6000
6000
6000
F000
ENDCHAR
STARTCHAR G
ENCODING 71
SWIDTH 709 0
DWIDTH 13 0
BBX 11 13 1 0
BITMAP
07C0
1860
3020
6000
6000
C000
C000
C1E0
C0C0
C0C0
C0C0
6180
3E00
ENDCHAR
STARTCHAR H
ENCODING 72
SWIDTH 775 0
DWIDTH 14 0
BBX 14 13 0 0
BITMAP
3C3C
1818
1818
1818
3030
3030
3FF0
3030
6060
6060
6060
6060
F0F0
ENDCHAR
STARTCHAR I
ENCODING 73
SWIDTH 345 0
DWIDTH 6 0
BBX 6 13 0 0
BITMAP
3C
18
18
18
30
30
30
30
60
60
60
60
F0
ENDCHAR
STARTCHAR J
ENCODING 74
SWIDTH 352 0
DWIDTH 6 0
BBX 8 16 -2 -3
BITMAP
0F
06
06
06
0C
0C
0C
0C
0C
18
18
18
18
18
30
E0
ENDCHAR
STARTCHAR K
ENCODING 75
SWIDTH 650 0
DWIDTH 12 0
BBX 12 13 0 0
BITMAP
3E70
1820
1840
1880
3100
3200
3C00
3600
6300
6380
6180
60C0
F0E0
ENDCHAR
STARTCHAR L
ENCODING 76
SWIDTH 565 0
DWIDTH 10 0
BBX 9 13 0 0
BITMAP
3C00
1800
1800
1800
3000
3000
3000
3000
6000
6000
6080
6180
FF80
ENDCHAR
STARTCHAR M
ENCODING 77
SWIDTH 920 0
DWIDTH 17 0
BBX 17 13 0 0
BITMAP
380780
180700
180B00
1C1B00
2C1600
2C2600
266600
264600
468C00
438C00
430C00
420C00
E01E00
ENDCHAR
STARTCHAR N
ENCODING 78
SWIDTH 763 0
DWIDTH 14 0
BBX 14 13 0 0
BITMAP
3C1C
1C08
1C08
1608
2610
2310
2310
2190
2190
40E0
40E0
4060
E060
ENDCHAR
STARTCHAR O
ENCODING 79
SWIDTH 753 0
DWIDTH 14 0
BBX 12 13 1 0
BITMAP
07C0
1860
3030
6030
6030
C030
C030
C030
C060
C060
C0C0
6180
3E00
ENDCHAR
STARTCHAR P
ENCODING 80
SWIDTH 614 0
DWIDTH 11 0
BBX 11 13 0 0
BITMAP
3F80
18C0
1860
1860
3060
30C0
3180
3E00
6000
6000
6000
6000
F000
ENDCHAR
STARTCHAR Q
ENCODING 81
SWIDTH 753 0
DWIDTH 14 0
BBX 12 17 1 -4
BITMAP
07C0
1860
3030
6030
6030
C030
C030
C030
C060
C060
C0C0
6180
3E00
0C00
0E00
0700
01C0
ENDCHAR
STARTCHAR R
ENCODING 82
SWIDTH 640 0
DWIDTH 12 0
BBX 11 13 0 0
BITMAP
3F80
18C0
1860
1860
3060
30C0
3F00
3300
6180
6180
6180
6180
F0C0
ENDCHAR
STARTCHAR S
ENCODING 83
SWIDTH 533 0
DWIDTH 10 0
BBX 10 13 0 0
BITMAP
0780
18C0
3040
3000
3800
1C00
0700
0380
0180
8180
C180
E300
3C00
ENDCHAR
STARTCHAR T
ENCODING 84
SWIDTH 606 0
DWIDTH 13 0
BBX 12 13 1 0
BITMAP
FFF0
C630
8610
0600
0C00
0C00
0C00
0C00
1800
1800
1800
1800
3C00
ENDCHAR
STARTCHAR U
ENCODING 85
SWIDTH 794 0
DWIDTH 14 0
BBX 13 13 1 0
BITMAP
7878
3030
3030
3030
6060
6060
6060
6060
C0C0
C0C0
C0C0
6180
3E00
ENDCHAR
STARTCHAR V
ENCODING 86
SWIDTH 637 0
DWIDTH 12 0
BBX 12 13 1 0
BITMAP
F070
6020
6040
6040
3080
3080
3100
3100
3200
1A00
1C00
1C00
1800
ENDCHAR
STARTCHAR W
ENCODING 87
SWIDTH 946 0
DWIDTH 18 0
BBX 18 13 1 0
BITMAP
F061C0
606080
60E080
60E100
616100
626200
323200
343400
343400
383800
383800
303000
303000
ENDCHAR
STARTCHAR X
ENCODING 88
SWIDTH 632 0
DWIDTH 12 0
BBX 12 13 0 0
BITMAP
3C70
1820
1840
0C80
0D00
0600
0600
0600
0B00
1300
2180
4180
E3C0
ENDCHAR
STARTCHAR Y
ENCODING 89
SWIDTH 591 0
DWIDTH 11 0
BBX 11 13 1 0
BITMAP
F0E0
6040
6080
3100
3200
3400
1800
1800
1800
3000
3000
3000
7800
ENDCHAR
STARTCHAR Z
ENCODING 90
SWIDTH 622 0
DWIDTH 11 0
BBX 11 13 0 0
BITMAP
3FE0
30E0
21C0
0180
0300
0600
0E00
0C00
1800
3000
7040
E0C0
FFC0
ENDCHAR
STARTCHAR bracketleft
ENCODING 91
SWIDTH 330 0
DWIDTH 6 0
BBX 6 16 1 -3
BITMAP
1C
10
10
30
20
20
20
60
40
40
40
C0
80
80
80
E0
ENDCHAR
STARTCHAR backslash
ENCODING 92
SWIDTH 390 0
DWIDTH 7 0
BBX 4 13 2 0
BITMAP
80
80
80
40
40
40
20
20
20
20
10
10
10
ENDCHAR
STARTCHAR bracketright
ENCODING 93
SWIDTH 330 0
DWIDTH 6 0
BBX 6 16 -1 -3
BITMAP
1C
04
04
0C
08
08
08
18
10
10
10
30
20
20
20
E0
ENDCHAR
STARTCHAR asciicircum
ENCODING 94
SWIDTH 570 0
DWIDTH 10 0
BBX 7 8 1 5
BITMAP
10
10
28
28
44
44
82
82
ENDCHAR
STARTCHAR underscore
ENCODING 95
SWIDTH 500 0
DWIDTH 9 0
BBX 9 1 0 -3
BITMAP
FF80
ENDCHAR
STARTCHAR grave
ENCODING 96
SWIDTH 400 0
DWIDTH 7 0
BBX 3 2 2 10
BITMAP
C0
60
ENDCHAR
STARTCHAR a
ENCODING 97
SWIDTH 561 0
DWIDTH 11 0
BBX 10 9 0 0
BITMAP
0F80
3180
6180
6300
C300
C300
C640
CE80
7300
ENDCHAR
STARTCHAR b
ENCODING 98
SWIDTH 559 0
DWIDTH 10 0
BBX 9 14 0 0
BITMAP
3800
1800
1800
3000
3000
3700
6980
7180
6180
6180
C300
C300
E600
D800
ENDCHAR
STARTCHAR c
ENCODING 99
SWIDTH 441 0
DWIDTH 8 0
BBX 8 9 0 0
BITMAP
0E
33
60
60
C0
C0
C2
C4
78
ENDCHAR
STARTCHAR d
ENCODING 100
SWIDTH 587 0
DWIDTH 11 0
BBX 10 14 0 0
BITMAP
01C0
00C0
00C0
00C0
0180
0F80
3180
6180
6300
C300
C300
C640
CE80
7300
ENDCHAR
STARTCHAR e
ENCODING 101
SWIDTH 453 0
DWIDTH 9 0
BBX 8 9 0 0
BITMAP
0E
33
63
66
CC
F0
C2
C4
78
ENDCHAR
STARTCHAR f
ENCODING 102
SWIDTH 315 0
DWIDTH 6 0
BBX 11 18 -3 -4
BITMAP
00C0
0160
0300
0300
0300
0FC0
0600
0600
0600
0C00
0C00
0C00
0C00
1800
1800
1800
D000
6000
ENDCHAR
STARTCHAR g
ENCODING 103
SWIDTH 499 0
DWIDTH 10 0
BBX 11 13 -1 -4
BITMAP
07E0
18C0
30C0
3080
3100
1E00
3000
3C00
6F00
C380
8180
C300
7E00
ENDCHAR
STARTCHAR h
ENCODING 104
SWIDTH 607 0
DWIDTH 12 0
BBX 11 14 0 0
BITMAP
3800
1800
1800
1800
3000
3380
34C0
68C0
7180
6180
6180
C320
C340
C380
ENDCHAR
STARTCHAR i
ENCODING 105
SWIDTH 317 0
DWIDTH 6 0
BBX 5 13 0 0
BITMAP
18
18
00
00
70
30
30
60
60
60
C8
D0
E0
ENDCHAR
STARTCHAR j
ENCODING 106
SWIDTH 309 0
DWIDTH 6 0
BBX 8 17 -3 -4
BITMAP
03
03
00
00
0E
06
06
06
0C
0C
0C
0C
18
18
18
D8
70
ENDCHAR
STARTCHAR k
ENCODING 107
SWIDTH 545 0
DWIDTH 10 0
BBX 10 14 0 0
BITMAP
3800
1800
1800
3000
3000
3180
3380
6400
6800
7C00
6C00
C600
C740
C380
ENDCHAR
STARTCHAR l
ENCODING 108
SWIDTH 306 0
DWIDTH 6 0
BBX 5 14 0 0
BITMAP
38
18
18
30
30
30
30
60
60
60
C0
C8
D0
E0
ENDCHAR
STARTCHAR m
ENCODING 109
SWIDTH 912 0
DWIDTH 18 0
BBX 17 9 0 0
BITMAP
738E00
34D300
38E300
71C600
618600
618600
C30C80
C30D00
C30E00
ENDCHAR
STARTCHAR n
ENCODING 110
SWIDTH 618 0
DWIDTH 12 0
BBX 11 9 0 0
BITMAP
7380
34C0
38C0
7180
6180
6180
C320
C340
C380
ENDCHAR
STARTCHAR o
ENCODING 111
SWIDTH 537 0
DWIDTH 10 0
BBX 9 9 0 0
BITMAP
0F00
3180
6180
6180
C180
C300
C300
C600
7800
ENDCHAR
STARTCHAR p
ENCODING 112
SWIDTH 590 0
DWIDTH 10 0
BBX 10 13 -1 -4
BITMAP
3B80
1CC0
18C0
30C0
30C0
3180
6180
7300
6C00
6000
C000
C000
C000
ENDCHAR
STARTCHAR q
ENCODING 113
SWIDTH 559 0
DWIDTH 10 0
BBX 9 14 0 -4
BITMAP
0080
0F80
3180
6180
6300
C300
C300
C600
CE00
7600
0600
0C00
0C00
0C00
ENDCHAR
STARTCHAR r
ENCODING 114
SWIDTH 402 0
DWIDTH 8 0
BBX 8 9 0 0
BITMAP
73
37
38
70
60
60
C0
C0
C0
ENDCHAR
STARTCHAR s
ENCODING 115
SWIDTH 389 0
DWIDTH 8 0
BBX 7 9 0 0
BITMAP
1C
26
60
70
38
1C
0C
C8
70
ENDCHAR
STARTCHAR t
ENCODING 116
SWIDTH 341 0
DWIDTH 6 0
BBX 6 11 0 0
BITMAP
10
30
FC
30
60
60
60
C0
C8
D0
E0
ENDCHAR
STARTCHAR u
ENCODING 117
SWIDTH 618 0
DWIDTH 12 0
BBX 11 9 0 0
BITMAP
70C0
30C0
30C0
6180
6180
6380
C720
CB40
7380
ENDCHAR
STARTCHAR v
ENCODING 118
SWIDTH 510 0
DWIDTH 10 0
BBX 8 9 1 0
BITMAP
E3
63
63
63
C2
C6
C4
C8
70
ENDCHAR
STARTCHAR w
ENCODING 119
SWIDTH 785 0
DWIDTH 15 0
BBX 13 9 1 0
BITMAP
E318
6318
6318
6318
C610
C630
C620
CE40
7380
ENDCHAR
STARTCHAR x
ENCODING 120
SWIDTH 516 0
DWIDTH 9 0
BBX 10 9 -1 0
BITMAP
38C0
1980
1A00
0C00
0C00
0C00
1640
6680
C700
ENDCHAR
STARTCHAR y
ENCODING 121
SWIDTH 468 0
DWIDTH 8 0
BBX 10 13 -2 -4
BITMAP
38C0
18C0
1880
1900
0D00
0E00
0E00
0C00
0C00
0800
1800
D000
6000
ENDCHAR
STARTCHAR z
ENCODING 122
SWIDTH 468 0
DWIDTH 10 0
BBX 9 9 0 0
BITMAP
3F80
3F00
4200
0400
0800
1000
3880
7D00
8E00
ENDCHAR
STARTCHAR braceleft
ENCODING 123
SWIDTH 340 0
DWIDTH 6 0
BBX 7 16 0 -3
BITMAP
06
08
08
18
10
10
20
C0
20
20
20
60
40
40
40
30
ENDCHAR
STARTCHAR bar
ENCODING 124
SWIDTH 270 0
DWIDTH 5 0
BBX 1 13 2 0
BITMAP
80
80
80
80
80
80
80
80
80
80
80
80
80
ENDCHAR
STARTCHAR braceright
ENCODING 125
SWIDTH 340 0
DWIDTH 6 0
BBX 7 16 -1 -3
BITMAP
18
04
04
0C
08
08
08
06
08
10
10
10
30
20
20
C0
ENDCHAR
STARTCHAR asciitilde
ENCODING 126
SWIDTH 570 0
DWIDTH 10 0
BBX 9 2 0 4
BITMAP
7980
CF00
ENDCHAR
STARTCHAR space
ENCODING 160
SWIDTH 225 0
DWIDTH 4 0
BBX 0 0 0 0
BITMAP
ENDCHAR
STARTCHAR exclamdown
ENCODING 161
SWIDTH 240 0
DWIDTH 5 0
BBX 4 13 0 -4
BITMAP
30
30
00
00
20
20
60
60
60
40
C0
C0
C0
ENDCHAR
STARTCHAR cent
ENCODING 162
SWIDTH 530 0
DWIDTH 10 0
BBX 9 13 0 0
BITMAP
0200
0200
0F00
3580
6400
6400
C800
C800
C900
EA00
7C00
1000
1000
ENDCHAR
STARTCHAR sterling
ENCODING 163
SWIDTH 530 0
DWIDTH 10 0
BBX 9 13 0 0
BITMAP
0700
1980
3180
3000
3000
3000
1800
7F00
1800
1000
2100
7F00
FF00
ENDCHAR
STARTCHAR currency
ENCODING 164
SWIDTH 530 0
DWIDTH 10 0
BBX 8 8 1 3
BITMAP
BD
66
C3
81
81
C3
66
BD
ENDCHAR
STARTCHAR yen
ENCODING 165
SWIDTH 530 0
DWIDTH 10 0
BBX 10 13 0 0
BITMAP
79C0
3080
3100
3200
3200
3400
FF00
1800
FE00
3000
3000
3000
7800
ENDCHAR
STARTCHAR brokenbar
ENCODING 166
SWIDTH 270 0
DWIDTH 5 0
BBX 1 13 2 0
BITMAP
80
80
80
80
80
00
00
00
80
80
80
80
80
ENDCHAR
STARTCHAR section
ENCODING 167
SWIDTH 530 0
DWIDTH 10 0
BBX 8 15 1 -2
BITMAP
0E
13
21
30
78
9E
87
C3
E1
79
1E
0C
84
C8
70
ENDCHAR
STARTCHAR dieresis
ENCODING 168
SWIDTH 400 0
DWIDTH 7 0
BBX 5 2 1 10
BITMAP
D8
D8
ENDCHAR
STARTCHAR copyright
ENCODING 169
SWIDTH 836 0
DWIDTH 16 0
BBX 13 13 1 0
BITMAP
0F80
3060
4010
4F90
98C8
9008
9008
9008
98C8
4F90
4010
3060
0F80
ENDCHAR
STARTCHAR ordfeminine
ENCODING 170
SWIDTH 425 0
DWIDTH 8 0
BBX 8 6 0 6
BITMAP
36
6E
C6
CC
DD
6E
ENDCHAR
STARTCHAR guillemotleft
ENCODING 171
SWIDTH 462 0
DWIDTH 9 0
BBX 8 7 0 1
BITMAP
11
22
44
CC
44
22
22
ENDCHAR
STARTCHAR logicalnot
ENCODING 172
SWIDTH 570 0
DWIDTH 10 0
BBX 9 5 0 2
BITMAP
FF80
0080
0080
0080
0080
ENDCHAR
STARTCHAR hyphen
ENCODING 173
SWIDTH 392 0
DWIDTH 7 0
BBX 5 1 1 4
BITMAP
F8
ENDCHAR
STARTCHAR registered
ENCODING 174
SWIDTH 836 0
DWIDTH 16 0
BBX 13 13 1 0
BITMAP
0F80
3060
4010
5F10
8888
8988
8F08
8988
8888
5CD0
4010
3060
0F80
ENDCHAR
STARTCHAR macron
ENCODING 175
SWIDTH 400 0
DWIDTH 7 0
BBX 6 1 0 10
BITMAP
FC
ENDCHAR
STARTCHAR degree
ENCODING 176
SWIDTH 400 0
DWIDTH 7 0
BBX 5 5 1 8
BITMAP
70
88
88
88
70
ENDCHAR
STARTCHAR plusminus
ENCODING 177
SWIDTH 570 0
DWIDTH 10 0
BBX 9 11 0 0
BITMAP
0800
0800
0800
0800
FF80
0800
0800
0800
0800
0000
FF80
ENDCHAR
STARTCHAR twosuperior
ENCODING 178
SWIDTH 370 0
DWIDTH 7 0
BBX 6 8 0 5
BITMAP
38
64
04
0C
18
60
C4
FC
ENDCHAR
STARTCHAR threesuperior
ENCODING 179
SWIDTH 370 0
DWIDTH 7 0
BBX 6 8 0 5
BITMAP
38
64
0C
38
08
08
D8
70
ENDCHAR
STARTCHAR acute
ENCODING 180
SWIDTH 400 0
DWIDTH 7 0
BBX 3 2 2 10
BITMAP
60
C0
ENDCHAR
STARTCHAR mu
ENCODING 181
SWIDTH 618 0
DWIDTH 11 0
BBX 12 13 -1 -4
BITMAP
3860
1860
1860
30C0
30C0
31C0
6390
65A0
79C0
4000
C000
C000
C000
ENDCHAR
STARTCHAR paragraph
ENCODING 182
SWIDTH 560 0
DWIDTH 10 0
BBX 9 15 1 -2
BITMAP
1B80
7A00
7A00
FA00
F600
F400
F400
7400
0400
0C00
0800
0800
0800
0800
3800
ENDCHAR
STARTCHAR periodcentered
ENCODING 183
SWIDTH 265 0
DWIDTH 5 0
BBX 2 2 1 4
BITMAP
C0
C0
ENDCHAR
STARTCHAR cedilla
ENCODING 184
SWIDTH 400 0
DWIDTH 7 0
BBX 3 4 2 -4
BITMAP
40
60
20
C0
ENDCHAR
STARTCHAR onesuperior
ENCODING 185
SWIDTH 370 0
DWIDTH 7 0
BBX 4 8 1 5
BITMAP
30
10
20
20
20
40
40
E0
ENDCHAR
STARTCHAR ordmasculine
ENCODING 186
SWIDTH 389 0
DWIDTH 7 0
BBX 6 6 1 6
BITMAP
38
6C
CC
CC
D8
70
ENDCHAR
STARTCHAR guillemotright
ENCODING 187
SWIDTH 462 0
DWIDTH 9 0
BBX 8 7 0 1
BITMAP
44
44
22
33
22
44
88
ENDCHAR
STARTCHAR onequarter
ENCODING 188
SWIDTH 890 0
DWIDTH 16 0
BBX 13 13 1 0
BITMAP
3020
1040
2040
2080
2100
4120
4260
E450
0490
0910
11F8
1020
2070
ENDCHAR
STARTCHAR onehalf
ENCODING 189
SWIDTH 890 0
DWIDTH 16 0
BBX 14 13 0 0
BITMAP
3020
1040
2040
2080
2100
4138
4264
E404
040C
0818
1060
10C4
20FC
ENDCHAR
STARTCHAR threequarters
ENCODING 190
SWIDTH 890 0
DWIDTH 16 0
BBX 14 13 0 0
BITMAP
3810
6420
0C20
3840
0880
0890
D930
7228
0248
0488
08FC
0810
1038
ENDCHAR
STARTCHAR questiondown
ENCODING 191
SWIDTH 425 0
DWIDTH 9 0
BBX 7 13 0 -4
BITMAP
06
06
00
00
1C
06
06
0C
30
60
C6
C4
78
ENDCHAR
STARTCHAR Agrave
ENCODING 192
SWIDTH 624 0
DWIDTH 12 0
BBX 12 14 -1 0
BITMAP
0300
0180
0000
0180
0380
0380
04C0
08C0
08C0
1FC0
2060
2060
4060
E0F0
ENDCHAR
STARTCHAR Aacute
ENCODING 193
SWIDTH 624 0
DWIDTH 12 0
BBX 12 14 -1 0
BITMAP
00C0
0180
0000
0180
0380
0380
04C0
08C0
08C0
1FC0
2060
2060
4060
E0F0
ENDCHAR
STARTCHAR Acircumflex
ENCODING 194
SWIDTH 624 0
DWIDTH 12 0
BBX 12 14 -1 0
BITMAP
0180
02C0
0000
0180
0380
0380
04C0
08C0
08C0
1FC0
2060
2060
4060
E0F0
ENDCHAR
STARTCHAR Atilde
ENCODING 195
SWIDTH 624 0
DWIDTH 12 0
BBX 12 14 -1 0
BITMAP
03A0
04C0
0000
0180
0380
0380
04C0
08C0
08C0
1FC0
2060
2060
4060
E0F0
ENDCHAR
STARTCHAR Adieresis
ENCODING 196
SWIDTH 624 0
DWIDTH 12 0
BBX 12 14 -1 0
BITMAP
06C0
06C0
0000
0180
0380
0380
04C0
08C0
08C0
1FC0
2060
2060
4060
E0F0
ENDCHAR
STARTCHAR Aring
ENCODING 197
SWIDTH 624 0
DWIDTH 12 0
BBX 12 14 -1 0
BITMAP
0180
0240
0180
0180
0380
0380
04C0
08C0
08C0
1FC0
2060
2060
4060
E0F0
ENDCHAR
STARTCHAR AE
ENCODING 198
SWIDTH 880 0
DWIDTH 17 0
BBX 17 13 0 0
BITMAP
03FF80
00E180
016080
026000
02C000
04C200
08FE00
08C200
1F8000
218000
218200
418600
E3FE00
ENDCHAR
STARTCHAR Ccedilla
ENCODING 199
SWIDTH 661 0
DWIDTH 13 0
BBX 11 17 1 -4
BITMAP
07C0
1860
3020
6000
6000
C000
C000
C000
C000
C040
C0C0
6180
3E00
1000
1800
0800
3000
ENDCHAR
STARTCHAR Egrave
ENCODING 200
SWIDTH 596 0
DWIDTH 11 0
BBX 11 14 0 0
BITMAP
0600
0300
0000
3FE0
1860
1820
3000
3080
3F80
3080
6000
6080
6180
FF80
ENDCHAR
STARTCHAR Eacute
ENCODING 201
SWIDTH 596 0
DWIDTH 11 0
BBX 11 14 0 0
BITMAP
0180
0300
0000
3FE0
1860
1820
3000
3080
3F80
3080
6000
6080
6180
FF80
ENDCHAR
STARTCHAR Ecircumflex
ENCODING 202
SWIDTH 596 0
DWIDTH 11 0
BBX 11 14 0 0
BITMAP
0300
0580
0000
3FE0
1860
1820
3000
3080
3F80
3080
6000
6080
6180
FF80
ENDCHAR
STARTCHAR Edieresis
ENCODING 203
SWIDTH 596 0
DWIDTH 11 0
BBX 11 14 0 0
BITMAP
0D80
0D80
0000
3FE0
1860
1820
3000
3080
3F80
3080
6000
6080
6180
FF80
ENDCHAR
STARTCHAR Igrave
ENCODING 204
SWIDTH 345 0
DWIDTH 6 0
BBX 6 14 0 0
BITMAP
18
0C
00
3C
18
18
30
30
30
30
60
60
60
F0
ENDCHAR
STARTCHAR Iacute
ENCODING 205
SWIDTH 345 0
DWIDTH 6 0
BBX 7 14 0 0
BITMAP
06
0C
00
3C
18
18
30
30
30
30
60
60
60
F0
ENDCHAR
STARTCHAR Icircumflex
ENCODING 206
SWIDTH 345 0
DWIDTH 6 0
BBX 6 14 0 0
BITMAP
18
2C
00
3C
18
18
30
30
30
30
60
60
60
F0
ENDCHAR
STARTCHAR Idieresis
ENCODING 207
SWIDTH 345 0
DWIDTH 6 0
BBX 7 14 0 0
BITMAP
36
36
00
3C
18
18
30
30
30
30
60
60
60
F0
ENDCHAR
STARTCHAR Eth
ENCODING 208
SWIDTH 770 0
DWIDTH 14 0
BBX 13 13 0 0
BITMAP
3FE0
1830
1818
1818
3018
3018
7C18
3018
6030
6030
6060
60C0
FF00
ENDCHAR
STARTCHAR Ntilde
ENCODING 209
SWIDTH 763 0
DWIDTH 14 0
BBX 14 14 0 0
BITMAP
03A0
04C0
0000
3C1C
1C08
1608
2610
2310
2310
2190
41A0
40E0
40E0
E060
ENDCHAR
STARTCHAR Ograve
ENCODING 210
SWIDTH 753 0
DWIDTH 14 0
BBX 12 14 1 0
BITMAP
0300
0180
0000
07C0
1860
3030
6030
6030
C030
C060
C060
C0C0
6180
3E00
ENDCHAR
STARTCHAR Oacute
ENCODING 211
SWIDTH 753 0
DWIDTH 14 0
BBX 12 14 1 0
BITMAP
00C0
0180
0000
07C0
1860
3030
6030
6030
C030
C060
C060
C0C0
6180
3E00
ENDCHAR
STARTCHAR Ocircumflex
ENCODING 212
SWIDTH 753 0
DWIDTH 14 0
BBX 12 14 1 0
BITMAP
0300
0580
0000
07C0
1860
3030
6030
6030
C030
C060
C060
C0C0
6180
3E00
ENDCHAR
STARTCHAR Otilde
ENCODING 213
SWIDTH 753 0
DWIDTH 14 0
BBX 12 14 1 0
BITMAP
0740
0980
0000
07C0
1860
3030
6030
6030
C030
C060
C060
C0C0
6180
3E00
ENDCHAR
STARTCHAR Odieresis
ENCODING 214
SWIDTH 753 0
DWIDTH 14 0
BBX 12 14 1 0
BITMAP
06C0
06C0
0000
07C0
1860
3030
6030
6030
C030
C060
C060
C0C0
6180
3E00
ENDCHAR
STARTCHAR multiply
ENCODING 215
SWIDTH 570 0
DWIDTH 10 0
BBX 7 7 1 1
BITMAP
82
44
28
10
28
44
82
ENDCHAR
STARTCHAR Oslash
ENCODING 216
SWIDTH 753 0
DWIDTH 14 0
BBX 12 15 1 -1
BITMAP
0020
07C0
1860
30B0
6130
6130
C230
C430
C430
C860
D060
D0C0
6180
3E00
4000
ENDCHAR
STARTCHAR Ugrave
ENCODING 217
SWIDTH 794 0
DWIDTH 14 0
BBX 13 14 1 0
BITMAP
0300
0180
0000
7878
3030
3030
6060
6060
6060
C0C0
C0C0
C0C0
6180
3E00
ENDCHAR
STARTCHAR Uacute
ENCODING 218
SWIDTH 794 0
DWIDTH 14 0
BBX 13 14 1 0
BITMAP
0180
0300
0000
7878
3030
3030
6060
6060
6060
C0C0
C0C0
C0C0
6180
3E00
ENDCHAR
STARTCHAR Ucircumflex
ENCODING 219
SWIDTH 794 0
DWIDTH 14 0
BBX 13 14 1 0
BITMAP
0300
0580
0000
7878
3030
3030
6060
6060
6060
C0C0
C0C0
C0C0
6180
3E00
ENDCHAR
STARTCHAR Udieresis
ENCODING 220
SWIDTH 794 0
DWIDTH 14 0
BBX 13 14 1 0
BITMAP
06C0
06C0
0000
7878
3030
3030
6060
6060
6060
C0C0
C0C0
C0C0
6180
3E00
ENDCHAR
STARTCHAR Yacute
ENCODING 221
SWIDTH 591 0
DWIDTH 11 0
BBX 11 14 1 0
BITMAP
0300
0600
0000
F0E0
6040
6080
3100
3200
3400
1800
1800
3000
3000
7800
ENDCHAR
STARTCHAR Thorn
ENCODING 222
SWIDTH 604 0
DWIDTH 11 0
BBX 11 13 0 0
BITMAP
3C00
1800
1F80
18C0
3060
3060
3060
30C0
6180
7E00
6000
6000
F000
ENDCHAR
STARTCHAR germandbls
ENCODING 223
SWIDTH 577 0
DWIDTH 11 0
BBX 13 18 -3 -4
BITMAP
00F0
0118
0308
0308
0318
0E20
0640
0660
0670
0C38
0C18
0C08
0D90
18E0
1800
1800
D000
6000
ENDCHAR
STARTCHAR agrave
ENCODING 224
SWIDTH 561 0
DWIDTH 11 0
BBX 10 12 0 0
BITMAP
0C00
0600
0000
0F80
3180
6180
6300
C300
C300
C640
CE80
7300
ENDCHAR
STARTCHAR aacute
ENCODING 225
SWIDTH 561 0
DWIDTH 11 0
BBX 10 12 0 0
BITMAP
0300
0600
0000
0F80
3180
6180
6300
C300
C300
C640
CE80
7300
ENDCHAR
STARTCHAR acircumflex
ENCODING 226
SWIDTH 561 0
DWIDTH 11 0
BBX 10 12 0 0
BITMAP
0600
0B00
0000
0F80
3180
6180
6300
C300
C300
C640
CE80
7300
ENDCHAR
STARTCHAR atilde
ENCODING 227
SWIDTH 561 0
DWIDTH 11 0
BBX 10 12 0 0
BITMAP
0E80
1300
0000
0F80
3180
6180
6300
C300
C300
C640
CE80
7300
ENDCHAR
STARTCHAR adieresis
ENCODING 228
SWIDTH 561 0
DWIDTH 11 0
BBX 10 12 0 0
BITMAP
0D80
0D80
0000
0F80
3180
6180
6300
C300
C300
C640
CE80
7300
ENDCHAR
STARTCHAR aring
ENCODING 229
SWIDTH 561 0
DWIDTH 11 0
BBX 10 13 0 0
BITMAP
0600
0900
0600
0000
0F80
3180
6180
6300
C300
C300
C640
CE80
7300
ENDCHAR
STARTCHAR ae
ENCODING 230
SWIDTH 779 0
DWIDTH 15 0
BBX 14 10 0 0
BITMAP
0080
0FB8
31CC
618C
6198
C330
C3C0
C708
CB10
71E0
ENDCHAR
STARTCHAR ccedilla
ENCODING 231
SWIDTH 441 0
DWIDTH 8 0
BBX 8 13 0 -4
BITMAP
0E
33
60
60
C0
C0
C2
C4
78
20
30
10
60
ENDCHAR
STARTCHAR egrave
ENCODING 232
SWIDTH 453 0
DWIDTH 9 0
BBX 8 12 0 0
BITMAP
18
0C
00
0E
33
63
66
CC
F0
C2
C4
78
ENDCHAR
STARTCHAR eacute
ENCODING 233
SWIDTH 453 0
DWIDTH 9 0
BBX 8 12 0 0
BITMAP
06
0C
00
0E
33
63
66
CC
F0
C2
C4
78
ENDCHAR
STARTCHAR ecircumflex
ENCODING 234
SWIDTH 453 0
DWIDTH 9 0
BBX 8 12 0 0
BITMAP
0C
16
00
0E
33
63
66
CC
F0
C2
C4
78
ENDCHAR
STARTCHAR edieresis
ENCODING 235
SWIDTH 453 0
DWIDTH 9 0
BBX 8 12 0 0
BITMAP
1B
1B
00
0E
33
63
66
CC
F0
C2
C4
78
ENDCHAR
STARTCHAR igrave
ENCODING 236
SWIDTH 317 0
DWIDTH 6 0
BBX 5 12 0 0
BITMAP
60
30
00
70
30
30
60
60
60
C8
D0
E0
ENDCHAR
STARTCHAR iacute
ENCODING 237
SWIDTH 317 0
DWIDTH 6 0
BBX 5 12 0 0
BITMAP
18
30
00
70
30
30
60
60
60
C8
D0
E0
ENDCHAR
STARTCHAR icircumflex
ENCODING 238
SWIDTH 317 0
DWIDTH 6 0
BBX 5 12 0 0
BITMAP
30
58
00
70
30
30
60
60
60
C8
D0
E0
ENDCHAR
STARTCHAR idieresis
ENCODING 239
SWIDTH 317 0
DWIDTH 6 0
BBX 5 12 0 0
BITMAP
D8
D8
00
70
30
30
60
60
60
C8
D0
E0
ENDCHAR
STARTCHAR eth
ENCODING 240
SWIDTH 537 0
DWIDTH 10 0
BBX 9 14 0 0
BITMAP
1000
1B00
0C00
3600
0300
0F00
3180
6180
6180
C180
C300
C300
C600
7800
ENDCHAR
STARTCHAR ntilde
ENCODING 241
SWIDTH 618 0
DWIDTH 12 0
BBX 11 12 0 0
BITMAP
0E80
1300
0000
7380
34C0
38C0
7180
6180
6180
C320
C340
C380
ENDCHAR
STARTCHAR ograve
ENCODING 242
SWIDTH 537 0
DWIDTH 10 0
BBX 9 12 0 0
BITMAP
1800
0C00
0000
0F00
3180
6180
6180
C180
C300
C300
C600
7800
ENDCHAR
STARTCHAR oacute
ENCODING 243
SWIDTH 537 0
DWIDTH 10 0
BBX 9 12 0 0
BITMAP
0300
0600
0000
0F00
3180
6180
6180
C180
C300
C300
C600
7800
ENDCHAR
STARTCHAR ocircumflex
ENCODING 244
SWIDTH 537 0
DWIDTH 10 0
BBX 9 12 0 0
BITMAP
0600
0B00
0000
0F00
3180
6180
6180
C180
C300
C300
C600
7800
ENDCHAR
STARTCHAR otilde
ENCODING 245
SWIDTH 537 0
DWIDTH 10 0
BBX 9 12 0 0
BITMAP
0E80
1300
0000
0F00
3180
6180
6180
C180
C300
C300
C600
7800
ENDCHAR
STARTCHAR odieresis
ENCODING 246
SWIDTH 537 0
DWIDTH 10 0
BBX 9 12 0 0
BITMAP
1B00
1B00
0000
0F00
3180
6180
6180
C180
C300
C300
C600
7800
ENDCHAR
STARTCHAR divide
ENCODING 247
SWIDTH 570 0
DWIDTH 10 0
BBX 9 7 0 1
BITMAP
0800
0800
0000
FF80
0000
0800
0800
ENDCHAR
STARTCHAR oslash
ENCODING 248
SWIDTH 537 0
DWIDTH 10 0
BBX 11 9 -1 0
BITMAP
07A0
18C0
31C0
32C0
64C0
6980
7180
6300
BC00
ENDCHAR
STARTCHAR ugrave
ENCODING 249
SWIDTH 618 0
DWIDTH 12 0
BBX 11 12 0 0
BITMAP
0C00
0600
0000
70C0
30C0
30C0
6180
6180
6380
C720
CB40
7380
ENDCHAR
STARTCHAR uacute
ENCODING 250
SWIDTH 618 0
DWIDTH 12 0
BBX 11 12 0 0
BITMAP
0300
0600
0000
70C0
30C0
30C0
6180
6180
6380
C720
CB40
7380
ENDCHAR
STARTCHAR ucircumflex
ENCODING 251
SWIDTH 618 0
DWIDTH 12 0
BBX 11 12 0 0
BITMAP
0300
0580
0000
70C0
30C0
30C0
6180
6180
6380
C720
CB40
7380
ENDCHAR
STARTCHAR udieresis
ENCODING 252
SWIDTH 618 0
DWIDTH 12 0
BBX 11 12 0 0
BITMAP
1B00
1B00
0000
70C0
30C0
30C0
6180
6180
6380
C720
CB40
7380
ENDCHAR
STARTCHAR yacute
ENCODING 253
SWIDTH 468 0
DWIDTH 8 0
BBX 10 16 -2 -4
BITMAP
0180
0300
0000
38C0
18C0
1880
1900
0D00
0E00
0E00
0C00
0C00
0800
1800
D000
6000
ENDCHAR
STARTCHAR thorn
ENCODING 254
SWIDTH 584 0
DWIDTH 10 0
BBX 10 17 -1 -4
BITMAP
1C00
0C00
0C00
1800
1B80
1CC0
38C0
30C0
30C0
3180
6180
7300
6C00
6000
C000
C000
C000
ENDCHAR
STARTCHAR ydieresis
ENCODING 255
SWIDTH 468 0
DWIDTH 8 0
BBX 10 16 -2 -4
BITMAP
0D80
0D80
0000
38C0
18C0
1880
1900
0D00
0E00
0E00
0C00
0C00
0800
1800
D000
6000
ENDCHAR
STARTCHAR Amacron
ENCODING 256
SWIDTH 624 0
DWIDTH 12 0
BBX 12 15 -1 0
BITMAP
0FC0
0000
0180
0380
0380
0580
04C0
08C0
08C0
1FC0
10C0
2060
2060
4060
E0F0
ENDCHAR
STARTCHAR amacron
ENCODING 257
SWIDTH 561 0
DWIDTH 11 0
BBX 10 11 0 0
BITMAP
3F00
0000
0F80
3180
6180
6300
C300
C300
C640
CE80
7300
ENDCHAR
STARTCHAR Abreve
ENCODING 258
SWIDTH 624 0
DWIDTH 12 0
BBX 12 16 -1 0
BITMAP
0440
0380
0000
0180
0380
0380
0580
04C0
08C0
08C0
1FC0
10C0
2060
2060
4060
E0F0
ENDCHAR
STARTCHAR abreve
ENCODING 259
SWIDTH 561 0
DWIDTH 11 0
BBX 10 12 0 0
BITMAP
1100
0E00
0000
0F80
3180
6180
6300
C300
C300
C640
CE80
7300
ENDCHAR
STARTCHAR Aogonek
ENCODING 260
SWIDTH 624 0
DWIDTH 12 0
BBX 12 17 -1 -4
BITMAP
0180
0380
0380
0580
04C0
08C0
08C0
1FC0
10C0
2060
2060
4060
E0F0
0100
0200
0400
0700
ENDCHAR
STARTCHAR aogonek
ENCODING 261
SWIDTH 561 0
DWIDTH 11 0
BBX 10 13 0 -4
BITMAP
0F80
3180
6180
6300
C300
C300
C640
CE80
7300
0400
0800
1000
1C00
ENDCHAR
STARTCHAR Cacute
ENCODING 262
SWIDTH 661 0
DWIDTH 13 0
BBX 11 16 1 0
BITMAP
0300
0600
0000
07C0
1860
3020
6000
6000
C000
C000
C000
C000
C040
C0C0
6180
3E00
ENDCHAR
STARTCHAR cacute
ENCODING 263
SWIDTH 441 0
DWIDTH 8 0
BBX 8 12 0 0
BITMAP
0C
18
00
0E
33
60
60
C0
C0
C2
C4
78
ENDCHAR
STARTCHAR Ccircumflex
ENCODING 264
SWIDTH 661 0
DWIDTH 13 0
BBX 11 16 1 0
BITMAP
0600
0B00
0000
07C0
1860
3020
6000
6000
C000
C000
C000
C000
C040
C0C0
6180
3E00
ENDCHAR
STARTCHAR ccircumflex
ENCODING 265
SWIDTH 441 0
DWIDTH 8 0
BBX 8 12 0 0
BITMAP
18
2C
00
0E
33
60
60
C0
C0
C2
C4
78
ENDCHAR
STARTCHAR Cdotaccent
ENCODING 266
SWIDTH 661 0
DWIDTH 13 0
BBX 11 16 1 0
BITMAP
0600
0600
0000
07C0
1860
3020
6000
6000
C000
C000
C000
C000
C040
C0C0
6180
3E00
ENDCHAR
STARTCHAR cdotaccent
ENCODING 267
SWIDTH 441 0
DWIDTH 8 0
BBX 8 12 0 0
BITMAP
18
18
00
0E
33
60
60
C0
C0
C2
C4
78
ENDCHAR
STARTCHAR Ccaron
ENCODING 268
SWIDTH 661 0
DWIDTH 13 0
BBX 11 16 1 0
BITMAP
0D00
0600
0000
07C0
1860
3020
6000
6000
C000
C000
C000
C000
C040
C0C0
6180
3E00
ENDCHAR
STARTCHAR ccaron
ENCODING 269
SWIDTH 441 0
DWIDTH 8 0
BBX 8 12 0 0
BITMAP
34
18
00
0E
33
60
60
C0
C0
C2
C4
78
ENDCHAR
STARTCHAR Dcaron
ENCODING 270
SWIDTH 763 0
DWIDTH 14 0
BBX 13 16 0 0
BITMAP
0680
0300
0000
3FE0
1830
1818
1818
3018
3018
3018
3018
6030
6030
6060
60C0
FF00
ENDCHAR
STARTCHAR dcaron
ENCODING 271
SWIDTH 774 0
DWIDTH 15 0
BBX 14 14 0 0
BITMAP
01C0
00CC
00CC
00C8
0188
0F90
3180
6180
6300
C300
C300
C640
CE80
7300
ENDCHAR
STARTCHAR Dcroat
ENCODING 272
SWIDTH 770 0
DWIDTH 14 0
BBX 13 13 0 0
BITMAP
3FE0
1830
1818
1818
3018
3018
7C18
3018
6030
6030
6060
60C0
FF00
ENDCHAR
STARTCHAR dcroat
ENCODING 273
SWIDTH 587 0
DWIDTH 11 0
BBX 10 14 0 0
BITMAP
01C0
00C0
00C0
0FC0
0180
0F80
3180
6180
6300
C300
C300
C640
CE80
7300
ENDCHAR
STARTCHAR Emacron
ENCODING 274
SWIDTH 596 0
DWIDTH 11 0
BBX 11 15 0 0
BITMAP
1F80
0000
3FE0
1860
1820
1800
3000
3080
3F80
3080
6000
6000
6080
6180
FF80
ENDCHAR
STARTCHAR emacron
ENCODING 275
SWIDTH 453 0
DWIDTH 9 0
BBX 8 11 0 0
BITMAP
3F
00
0E
33
63
66
CC
F0
C2
C4
78
ENDCHAR
STARTCHAR Ebreve
ENCODING 276
SWIDTH 596 0
DWIDTH 11 0
BBX 11 16 0 0
BITMAP
0880
0700
0000
3FE0
1860
1820
1800
3000
3080
3F80
3080
6000
6000
6080
6180
FF80
ENDCHAR
STARTCHAR ebreve
ENCODING 277
SWIDTH 453 0
DWIDTH 9 0
BBX 8 12 0 0
BITMAP
22
1C
00
0E
33
63
66
CC
F0
C2
C4
78
ENDCHAR
STARTCHAR Edotaccent
ENCODING 278
SWIDTH 596 0
DWIDTH 11 0
BBX 11 16 0 0
BITMAP
0600
0600
0000
3FE0
1860
1820
1800
3000
3080
3F80
3080
6000
6000
6080
6180
FF80
ENDCHAR
STARTCHAR edotaccent
ENCODING 279
SWIDTH 453 0
DWIDTH 9 0
BBX 8 12 0 0
BITMAP
0C
0C
00
0E
33
63
66
CC
F0
C2
C4
78
ENDCHAR
STARTCHAR Eogonek
ENCODING 280
SWIDTH 596 0
DWIDTH 11 0
BBX 11 17 0 -4
BITMAP
3FE0
1860
1820
1800
3000
3080
3F80
3080
6000
6000
6080
6180
FF80
0400
0800
1000
1C00
ENDCHAR
STARTCHAR eogonek
ENCODING 281
SWIDTH 453 0
DWIDTH 9 0
BBX 8 13 0 -4
BITMAP
0E
33
63
66
CC
F0
C2
C4
78
10
20
40
70
ENDCHAR
STARTCHAR Ecaron
ENCODING 282
SWIDTH 596 0
DWIDTH 11 0
BBX 11 16 0 0
BITMAP
0D00
0600
0000
3FE0
1860
1820
1800
3000
3080
3F80
3080
6000
6000
6080
6180
FF80
ENDCHAR
STARTCHAR ecaron
ENCODING 283
SWIDTH 453 0
DWIDTH 9 0
BBX 8 12 0 0
BITMAP
1A
0C
00
0E
33
63
66
CC
F0
C2
C4
78
ENDCHAR
STARTCHAR Gcircumflex
ENCODING 284
SWIDTH 709 0
DWIDTH 13 0
BBX 11 16 1 0
BITMAP
0600
0B00
0000
07C0
1860
3020
6000
6000
C000
C000
C1E0
C0C0
C0C0
C0C0
6180
3E00
ENDCHAR
STARTCHAR gcircumflex
ENCODING 285
SWIDTH 499 0
DWIDTH 10 0
BBX 11 16 -1 -4
BITMAP
0600
0B00
0000
07E0
18C0
30C0
3080
3100
1E00
3000
3C00
6F00
C380
8180
C300
7E00
ENDCHAR
STARTCHAR Gbreve
ENCODING 286
SWIDTH 709 0
DWIDTH 13 0
BBX 11 16 1 0
BITMAP
1100
0E00
0000
07C0
1860
3020
6000
6000
C000
C000
C1E0
C0C0
C0C0
C0C0
6180
3E00
ENDCHAR
STARTCHAR gbreve
ENCODING 287
SWIDTH 499 0
DWIDTH 10 0
BBX 11 16 -1 -4
BITMAP
0880
0700
0000
07E0
18C0
30C0
3080
3100
1E00
3000
3C00
6F00
C380
8180
C300
7E00
ENDCHAR
STARTCHAR Gdotaccent
ENCODING 288
SWIDTH 709 0
DWIDTH 13 0
BBX 11 16 1 0
BITMAP
0600
0600
0000
07C0
1860
3020
6000
6000
C000
C000
C1E0
C0C0
C0C0
C0C0
6180
3E00
ENDCHAR
STARTCHAR gdotaccent
ENCODING 289
SWIDTH 499 0
DWIDTH 10 0
BBX 11 16 -1 -4
BITMAP
0600
0600
0000
07E0
18C0
30C0
3080
3100
1E00
3000
3C00
6F00
C380
8180
C300
7E00
ENDCHAR
STARTCHAR Gcommaaccent
ENCODING 290
SWIDTH 709 0
DWIDTH 13 0
BBX 11 19 1 -6
BITMAP
07C0
1860
3020
6000
6000
C000
C000
C1E0
C0C0
C0C0
C0C0
6180
3E00
0000
0C00
0C00
0800
0800
1000
ENDCHAR
STARTCHAR gcommaaccent
ENCODING 291
SWIDTH 499 0
DWIDTH 10 0
BBX 11 19 -1 -4
BITMAP
0100
0200
0200
0600
0600
0000
07E0
18C0
30C0
3080
3100
1E00
3000
3C00
6F00
C380
8180
C300
7E00
ENDCHAR
STARTCHAR Hcircumflex
ENCODING 292
SWIDTH 775 0
DWIDTH 14 0
BBX 14 16 0 0
BITMAP
0180
02C0
0000
3C3C
1818
1818
1818
3030
3030
3FF0
3030
6060
6060
6060
6060
F0F0
ENDCHAR
STARTCHAR hcircumflex
ENCODING 293
SWIDTH 607 0
DWIDTH 12 0
BBX 11 17 0 0
BITMAP
1800
2C00
0000
3800
1800
1800
1800
3000
3380
34C0
68C0
7180
6180
6180
C320
C340
C380
ENDCHAR
STARTCHAR Hbar
ENCODING 294
SWIDTH 775 0
DWIDTH 14 0
BBX 14 13 0 0
BITMAP
3C3C
1818
1818
FFFC
3030
3030
3FF0
3030
6060
6060
6060
6060
F0F0
ENDCHAR
STARTCHAR hbar
ENCODING 295
SWIDTH 607 0
DWIDTH 12 0
BBX 11 14 0 0
BITMAP
3800
1800
1800
FC00
3000
3380
34C0
68C0
7180
6180
6180
C320
C340
C380
ENDCHAR
STARTCHAR Itilde
ENCODING 296
SWIDTH 345 0
DWIDTH 6 0
BBX 7 16 0 0
BITMAP
3A
4C
00
3C
18
18
18
30
30
30
30
60
60
60
60
F0
ENDCHAR
STARTCHAR itilde
ENCODING 297
SWIDTH 317 0
DWIDTH 6 0
BBX 6 12 0 0
BITMAP
74
98
00
70
30
30
60
60
60
C8
D0
E0
ENDCHAR
STARTCHAR Imacron
ENCODING 298
SWIDTH 345 0
DWIDTH 6 0
BBX 7 15 0 0
BITMAP
7E
00
3C
18
18
18
30
30
30
30
60
60
60
60
F0
ENDCHAR
STARTCHAR imacron
ENCODING 299
SWIDTH 317 0
DWIDTH 6 0
BBX 6 11 0 0
BITMAP
FC
00
70
30
30
60
60
60
C8
D0
E0
ENDCHAR
STARTCHAR Ibreve
ENCODING 300
SWIDTH 345 0
DWIDTH 6 0
BBX 6 16 0 0
BITMAP
44
38
00
3C
18
18
18
30
30
30
30
60
60
60
60
F0
ENDCHAR
STARTCHAR ibreve
ENCODING 301
SWIDTH 317 0
DWIDTH 6 0
BBX 5 12 0 0
BITMAP
88
70
00
70
30
30
60
60
60
C8
D0
E0
ENDCHAR
STARTCHAR Iogonek
ENCODING 302
SWIDTH 345 0
DWIDTH 6 0
BBX 6 17 0 -4
BITMAP
3C
18
18
18
30
30
30
30
60
60
60
60
F0
10
20
40
70
ENDCHAR
STARTCHAR iogonek
ENCODING 303
SWIDTH 317 0
DWIDTH 6 0
BBX 5 17 0 -4
BITMAP
18
18
00
00
70
30
30
60
60
60
C8
D0
E0
20
40
80
E0
ENDCHAR
STARTCHAR Idotaccent
ENCODING 304
SWIDTH 345 0
DWIDTH 6 0
BBX 6 16 0 0
BITMAP
18
18
00
3C
18
18
18
30
30
30
30
60
60
60
60
F0
ENDCHAR
STARTCHAR dotlessi
ENCODING 305
SWIDTH 317 0
DWIDTH 6 0
BBX 5 9 0 0
BITMAP
70
30
30
60
60
60
C8
D0
E0
ENDCHAR
STARTCHAR IJ
ENCODING 306
SWIDTH 680 0
DWIDTH 12 0
BBX 12 16 0 -3
BITMAP
3CF0
1860
1860
1860
30C0
30C0
30C0
30C0
60C0
6180
6180
6180
F180
0180
0300
0E00
ENDCHAR
STARTCHAR ij
ENCODING 307
SWIDTH 610 0
DWIDTH 12 0
BBX 11 17 0 -4
BITMAP
1860
1860
0000
0000
71C0
30C0
30C0
60C0
6180
6180
C980
D180
E300
0300
0300
1B00
0E00
ENDCHAR
STARTCHAR Jcircumflex
ENCODING 308
SWIDTH 352 0
DWIDTH 6 0
BBX 8 19 -2 -3
BITMAP
0C
16
00
0F
06
06
06
0C
0C
0C
0C
0C
18
18
18
18
18
30
E0
ENDCHAR
STARTCHAR jcircumflex
ENCODING 309
SWIDTH 309 0
DWIDTH 6 0
BBX 8 16 -3 -4
BITMAP
0C
16
00
0E
06
06
06
0C
0C
0C
0C
18
18
18
D8
70
ENDCHAR
STARTCHAR Kcommaaccent
ENCODING 310
SWIDTH 650 0
DWIDTH 12 0
BBX 12 19 0 -6
BITMAP
3E70
1820
1840
1880
3100
3200
3C00
3600
6300
6380
6180
60C0
F0E0
0000
0600
0600
0400
0400
0800
ENDCHAR
STARTCHAR kcommaaccent
ENCODING 311
SWIDTH 545 0
DWIDTH 10 0
BBX 10 20 0 -6
BITMAP
3800
1800
1800
3000
3000
3180
3380
6400
6800
7C00
6C00
C600
C740
C380
0000
0C00
0C00
0800
0800
1000
ENDCHAR
STARTCHAR kgreenlandic
ENCODING 312
SWIDTH 545 0
DWIDTH 10 0
BBX 10 9 0 0
BITMAP
3180
3380
6400
6800
7C00
6C00
C600
C740
C380
ENDCHAR
STARTCHAR Lacute
ENCODING 313
SWIDTH 565 0
DWIDTH 10 0
BBX 9 16 0 0
BITMAP
0C00
1800
0000
3C00
1800
1800
1800
3000
3000
3000
3000
6000
6000
6080
6180
FF80
ENDCHAR
STARTCHAR lacute
ENCODING 314
SWIDTH 306 0
DWIDTH 6 0
BBX 5 17 0 0
BITMAP
18
30
00
38
18
18
30
30
30
30
60
60
60
C0
C8
D0
E0
ENDCHAR
STARTCHAR Lcommaaccent
ENCODING 315
SWIDTH 565 0
DWIDTH 10 0
BBX 9 19 0 -6
BITMAP
3C00
1800
1800
1800
3000
3000
3000
3000
6000
6000
6080
6180
FF80
0000
0C00
0C00
0800
0800
1000
ENDCHAR
STARTCHAR lcommaaccent
ENCODING 316
SWIDTH 306 0
DWIDTH 6 0
BBX 5 20 0 -6
BITMAP
38
18
18
30
30
30
30
60
60
60
C0
C8
D0
E0
00
60
60
40
40
80
ENDCHAR
STARTCHAR Lcaron
ENCODING 317
SWIDTH 753 0
DWIDTH 15 0
BBX 14 13 0 0
BITMAP
3C0C
180C
1808
1808
3010
3000
3000
3000
6000
6000
6080
6180
FF80
ENDCHAR
STARTCHAR lcaron
ENCODING 318
SWIDTH 507 0
DWIDTH 11 0
BBX 10 14 0 0
BITMAP
3800
18C0
18C0
3080
3080
3100
3000
6000
6000
6000
C000
C800
D000
E000
ENDCHAR
STARTCHAR Ldot
ENCODING 319
SWIDTH 802 0
DWIDTH 15 0
BBX 13 13 0 0
BITMAP
3C00
1800
1800
1800
3000
3000
3000
3018
6018
6000
6080
6180
FF80
ENDCHAR
STARTCHAR ldot
ENCODING 320
SWIDTH 556 0
DWIDTH 11 0
BBX 9 14 0 0
BITMAP
3800
1800
1800
3000
3000
3000
3000
6000
6180
6180
C000
C800
D000
E000
ENDCHAR
STARTCHAR Lslash
ENCODING 321
SWIDTH 571 0
DWIDTH 10 0
BBX 9 13 0 0
BITMAP
3C00
1800
1800
1800
3200
3400
3800
7000
A000
6000
6080
6180
FF80
ENDCHAR
STARTCHAR lslash
ENCODING 322
SWIDTH 318 0
DWIDTH 6 0
BBX 6 14 0 0
BITMAP
38
18
18
18
34
38
30
60
E0
60
60
C8
D0
E0
ENDCHAR
STARTCHAR Nacute
ENCODING 323
SWIDTH 763 0
DWIDTH 14 0
BBX 14 16 0 0
BITMAP
0180
0300
0000
3C1C
1C08
1C08
1608
2610
2310
2310
2190
2190
40E0
40E0
4060
E060
ENDCHAR
STARTCHAR nacute
ENCODING 324
SWIDTH 618 0
DWIDTH 12 0
BBX 11 12 0 0
BITMAP
0600
0C00
0000
7380
34C0
38C0
7180
6180
6180
C320
C340
C380
ENDCHAR
STARTCHAR Ncommaaccent
ENCODING 325
SWIDTH 763 0
DWIDTH 14 0
BBX 14 19 0 -6
BITMAP
3C1C
1C08
1C08
1608
2610
2310
2310
2190
2190
40E0
40E0
4060
E060
0000
0300
0300
0200
0200
0400
ENDCHAR
STARTCHAR ncommaaccent
ENCODING 326
SWIDTH 618 0
DWIDTH 12 0
BBX 11 15 0 -6
BITMAP
7380
34C0
38C0
7180
6180
6180
C320
C340
C380
0000
0C00
0C00
0800
0800
1000
ENDCHAR
STARTCHAR Ncaron
ENCODING 327
SWIDTH 763 0
DWIDTH 14 0
BBX 14 16 0 0
BITMAP
0680
0300
0000
3C1C
1C08
1C08
1608
2610
2310
2310
2190
2190
40E0
40E0
4060
E060
ENDCHAR
STARTCHAR ncaron
ENCODING 328
SWIDTH 618 0
DWIDTH 12 0
BBX 11 12 0 0
BITMAP
0D00
0600
0000
7380
34C0
38C0
7180
6180
6180
C320
C340
C380
ENDCHAR
STARTCHAR napostrophe
ENCODING 329
SWIDTH 823 0
DWIDTH 17 0
BBX 15 13 1 0
BITMAP
6000
6000
4000
4000
8738
034C
038C
0718
0618
0618
0C32
0C34
0C38
ENDCHAR
STARTCHAR Eng
ENCODING 330
SWIDTH 763 0
DWIDTH 14 0
BBX 14 17 0 -4
BITMAP
3C1C
1C08
1C08
1608
2610
2310
2310
2190
2190
40E0
40E0
4060
E0E0
00C0
00C0
06C0
0380
ENDCHAR
STARTCHAR eng
ENCODING 331
SWIDTH 618 0
DWIDTH 12 0
BBX 10 13 0 -4
BITMAP
7380
34C0
38C0
7180
6180
6180
C180
C180
C300
0300
0300
1B00
0E00
ENDCHAR
STARTCHAR Omacron
ENCODING 332
SWIDTH 753 0
DWIDTH 14 0
BBX 12 15 1 0
BITMAP
0FC0
0000
07C0
1860
3030
6030
6030
C030
C030
C030
C060
C060
C0C0
6180
3E00
ENDCHAR
STARTCHAR omacron
ENCODING 333
SWIDTH 537 0
DWIDTH 10 0
BBX 9 11 0 0
BITMAP
3F00
0000
0F00
3180
6180
6180
C180
C300
C300
C600
7800
ENDCHAR
STARTCHAR Obreve
ENCODING 334
SWIDTH 753 0
DWIDTH 14 0
BBX 12 16 1 0
BITMAP
0880
0700
0000
07C0
1860
3030
6030
6030
C030
C030
C030
C060
C060
C0C0
6180
3E00
ENDCHAR
STARTCHAR obreve
ENCODING 335
SWIDTH 537 0
DWIDTH 10 0
BBX 9 12 0 0
BITMAP
1100
0E00
0000
0F00
3180
6180
6180
C180
C300
C300
C600
7800
ENDCHAR
STARTCHAR Ohungarumlaut
ENCODING 336
SWIDTH 753 0
DWIDTH 14 0
BBX 12 17 1 0
BITMAP
0240
06C0
0480
0000
07C0
1860
3030
6030
6030
C030
C030
C030
C060
C060
C0C0
6180
3E00
ENDCHAR
STARTCHAR ohungarumlaut
ENCODING 337
SWIDTH 537 0
DWIDTH 10 0
BBX 9 13 0 0
BITMAP
0900
1B00
1200
0000
0F00
3180
6180
6180
C180
C300
C300
C600
7800
ENDCHAR
STARTCHAR OE
ENCODING 338
SWIDTH 1020 0
DWIDTH 19 0
BBX 18 13 1 0
BITMAP
07FFC0
1830C0
303040
603000
606000
C06100
C07F00
C06100
C0C000
C0C000
C0C100
60C300
3FFF00
ENDCHAR
STARTCHAR oe
ENCODING 339
SWIDTH 806 0
DWIDTH 15 0
BBX 14 9 0 0
BITMAP
0F38
31CC
618C
6198
C330
C3C0
C308
C710
79E0
ENDCHAR
STARTCHAR Racute
ENCODING 340
SWIDTH 640 0
DWIDTH 12 0
BBX 11 16 0 0
BITMAP
0300
0600
0000
3F80
18C0
1860
1860
3060
30C0
3F00
3300
6180
6180
6180
6180
F0C0
ENDCHAR
STARTCHAR racute
ENCODING 341
SWIDTH 402 0
DWIDTH 8 0
BBX 8 12 0 0
BITMAP
0C
18
00
73
37
38
70
60
60
C0
C0
C0
ENDCHAR
STARTCHAR Rcommaaccent
ENCODING 342
SWIDTH 640 0
DWIDTH 12 0
BBX 11 19 0 -6
BITMAP
3F80
18C0
1860
1860
3060
30C0
3F00
3300
6180
6180
6180
6180
F0C0
0000
0C00
0C00
0800
0800
1000
ENDCHAR
STARTCHAR rcommaaccent
ENCODING 343
SWIDTH 402 0
DWIDTH 8 0
BBX 8 15 0 -6
BITMAP
73
37
38
70
60
60
C0
C0
C0
00
60
60
40
40
80
ENDCHAR
STARTCHAR Rcaron
ENCODING 344
SWIDTH 640 0
DWIDTH 12 0
BBX 11 16 0 0
BITMAP
0D00
0600
0000
3F80
18C0
1860
1860
3060
30C0
3F00
3300
6180
6180
6180
6180
F0C0
ENDCHAR
STARTCHAR rcaron
ENCODING 345
SWIDTH 402 0
DWIDTH 8 0
BBX 8 12 0 0
BITMAP
34
18
00
73
37
38
70
60
60
C0
C0
C0
ENDCHAR
STARTCHAR Sacute
ENCODING 346
SWIDTH 533 0
DWIDTH 10 0
BBX 10 16 0 0
BITMAP
0600
0C00
0000
0780
18C0
3040
3000
3800
1C00
0700
0380
0180
8180
C180
E300
3C00
ENDCHAR
STARTCHAR sacute
ENCODING 347
SWIDTH 389 0
DWIDTH 8 0
BBX 7 12 0 0
BITMAP
0C
18
00
1C
26
60
70
38
1C
0C
C8
70
ENDCHAR
STARTCHAR Scircumflex
ENCODING 348
SWIDTH 533 0
DWIDTH 10 0
BBX 10 16 0 0
BITMAP
0C00
1600
0000
0780
18C0
3040
3000
3800
1C00
0700
0380
0180
8180
C180
E300
3C00
ENDCHAR
STARTCHAR scircumflex
ENCODING 349
SWIDTH 389 0
DWIDTH 8 0
BBX 7 12 0 0
BITMAP
18
2C
00
1C
26
60
70
38
1C
0C
C8
70
ENDCHAR
STARTCHAR Scedilla
ENCODING 350
SWIDTH 533 0
DWIDTH 10 0
BBX 10 17 0 -4
BITMAP
0780
18C0
3040
3000
3800
1C00
0700
0380
0180
8180
C180
E300
3C00
0800
0C00
0400
1800
ENDCHAR
STARTCHAR scedilla
ENCODING 351
SWIDTH 389 0
DWIDTH 8 0
BBX 7 13 0 -4
BITMAP
1C
26
60
70
38
1C
0C
C8
70
20
30
10
60
ENDCHAR
STARTCHAR Scaron
ENCODING 352
SWIDTH 533 0
DWIDTH 10 0
BBX 10 14 0 0
BITMAP
0D00
0600
0000
0F80
18C0
3040
3800
1C00
0F00
0380
8180
C180
E300
3E00
ENDCHAR
STARTCHAR scaron
ENCODING 353
SWIDTH 389 0
DWIDTH 8 0
BBX 7 12 0 0
BITMAP
34
18
00
1C
26
60
70
38
1C
0C
C8
70
ENDCHAR
STARTCHAR Tcommaaccent
ENCODING 354
SWIDTH 606 0
DWIDTH 13 0
BBX 12 17 1 -4
BITMAP
FFF0
C630
8610
0600
0C00
0C00
0C00
0C00
1800
1800
1800
1800
3C00
0800
0C00
0400
1800
ENDCHAR
STARTCHAR tcommaaccent
ENCODING 355
SWIDTH 341 0
DWIDTH 6 0
BBX 6 15 0 -4
BITMAP
10
30
FC
30
60
60
60
C0
C8
D0
E0
20
30
10
60
ENDCHAR
STARTCHAR Tcaron
ENCODING 356
SWIDTH 606 0
DWIDTH 13 0
BBX 12 16 1 0
BITMAP
0D00
0600
0000
FFF0
C630
8610
0600
0C00
0C00
0C00
0C00
1800
1800
1800
1800
3C00
ENDCHAR
STARTCHAR tcaron
ENCODING 357
SWIDTH 540 0
DWIDTH 11 0
BBX 10 13 0 0
BITMAP
00C0
00C0
1080
3080
FD00
3000
6000
6000
6000
C000
C800
D000
E000
ENDCHAR
STARTCHAR Tbar
ENCODING 358
SWIDTH 606 0
DWIDTH 13 0
BBX 12 13 1 0
BITMAP
FFF0
C630
8610
0600
0C00
0C00
1F80
0C00
1800
1800
1800
1800
3C00
ENDCHAR
STARTCHAR tbar
ENCODING 359
SWIDTH 341 0
DWIDTH 6 0
BBX 6 11 0 0
BITMAP
10
30
FC
30
60
FC
60
C0
C8
D0
E0
ENDCHAR
STARTCHAR Utilde
ENCODING 360
SWIDTH 794 0
DWIDTH 14 0
BBX 13 16 1 0
BITMAP
0740
0980
0000
7878
3030
3030
3030
6060
6060
6060
6060
C0C0
C0C0
C0C0
6180
3E00
ENDCHAR
STARTCHAR utilde
ENCODING 361
SWIDTH 618 0
DWIDTH 12 0
BBX 11 12 0 0
BITMAP
0E80
1300
0000
70C0
30C0
30C0
6180
6180
6380
C720
CB40
7380
ENDCHAR
STARTCHAR Umacron
ENCODING 362
SWIDTH 794 0
DWIDTH 14 0
BBX 13 15 1 0
BITMAP
0FC0
0000
7878
3030
3030
3030
6060
6060
6060
6060
C0C0
C0C0
C0C0
6180
3E00
ENDCHAR
STARTCHAR umacron
ENCODING 363
SWIDTH 618 0
DWIDTH 12 0
BBX 11 11 0 0
BITMAP
1F80
0000
70C0
30C0
30C0
6180
6180
6380
C720
CB40
7380
ENDCHAR
STARTCHAR Ubreve
ENCODING 364
SWIDTH 794 0
DWIDTH 14 0
BBX 13 16 1 0
BITMAP
0880
0700
0000
7878
3030
3030
3030
6060
6060
6060
6060
C0C0
C0C0
C0C0
6180
3E00
ENDCHAR
STARTCHAR ubreve
ENCODING 365
SWIDTH 618 0
DWIDTH 12 0
BBX 11 12 0 0
BITMAP
1100
0E00
0000
70C0
30C0
30C0
6180
6180
6380
C720
CB40
7380
ENDCHAR
STARTCHAR Uring
ENCODING 366
SWIDTH 794 0
DWIDTH 14 0
BBX 13 17 1 0
BITMAP
0300
0480
0300
0000
7878
3030
3030
3030
6060
6060
6060
6060
C0C0
C0C0
C0C0
6180
3E00
ENDCHAR
STARTCHAR uring
ENCODING 367
SWIDTH 618 0
DWIDTH 12 0
BBX 11 13 0 0
BITMAP
0600
0900
0600
0000
70C0
30C0
30C0
6180
6180
6380
C720
CB40
7380
ENDCHAR
STARTCHAR Uhungarumlaut
ENCODING 368
SWIDTH 794 0
DWIDTH 14 0
BBX 13 17 1 0
BITMAP
0240
06C0
0480
0000
7878
3030
3030
3030
6060
6060
6060
6060
C0C0
C0C0
C0C0
6180
3E00
ENDCHAR
STARTCHAR uhungarumlaut
ENCODING 369
SWIDTH 618 0
DWIDTH 12 0
BBX 11 13 0 0
BITMAP
0900
1B00
1200
0000
70C0
30C0
30C0
6180
6180
6380
C720
CB40
7380
ENDCHAR
STARTCHAR Uogonek
ENCODING 370
SWIDTH 794 0
DWIDTH 14 0
BBX 13 17 1 -4
BITMAP
7878
3030
3030
3030
6060
6060
6060
6060
C0C0
C0C0
C0C0
6180
3E00
0200
0400
0800
0E00
ENDCHAR
STARTCHAR uogonek
ENCODING 371
SWIDTH 618 0
DWIDTH 12 0
BBX 11 13 0 -4
BITMAP
70C0
30C0
30C0
6180
6180
6380
C720
CB40
7380
0400
0800
1000
1C00
ENDCHAR
STARTCHAR Wcircumflex
ENCODING 372
SWIDTH 946 0
DWIDTH 18 0
BBX 18 16 1 0
BITMAP
018000
02C000
000000
F061C0
606080
60E080
60E100
616100
626200
323200
343400
343400
383800
383800
303000
303000
ENDCHAR
STARTCHAR wcircumflex
ENCODING 373
SWIDTH 785 0
DWIDTH 15 0
BBX 13 12 1 0
BITMAP
0600
0B00
0000
E318
6318
6318
6318
C610
C630
C620
CE40
7380
ENDCHAR
STARTCHAR Ycircumflex
ENCODING 374
SWIDTH 591 0
DWIDTH 11 0
BBX 11 16 1 0
BITMAP
0C00
1600
0000
F0E0
6040
6080
3100
3200
3400
1800
1800
1800
3000
3000
3000
7800
ENDCHAR
STARTCHAR ycircumflex
ENCODING 375
SWIDTH 468 0
DWIDTH 8 0
BBX 10 16 -2 -4
BITMAP
0C00
1600
0000
38C0
18C0
1880
1900
0D00
0E00
0E00
0C00
0C00
0800
1800
D000
6000
ENDCHAR
STARTCHAR Ydieresis
ENCODING 376
SWIDTH 591 0
DWIDTH 11 0
BBX 11 14 1 0
BITMAP
0D80
0D80
0000
F0E0
6040
6080
3100
3200
3400
1800
1800
3000
3000
7800
ENDCHAR
STARTCHAR Zacute
ENCODING 377
SWIDTH 622 0
DWIDTH 11 0
BBX 11 16 0 0
BITMAP
0300
0600
0000
3FE0
30E0
21C0
0180
0300
0600
0E00
0C00
1800
3000
7040
E0C0
FFC0
ENDCHAR
STARTCHAR zacute
ENCODING 378
SWIDTH 468 0
DWIDTH 10 0
BBX 9 12 0 0
BITMAP
0600
0C00
0000
3F80
3F00
4200
0400
0800
1000
3880
7D00
8E00
ENDCHAR
STARTCHAR Zdotaccent
ENCODING 379
SWIDTH 622 0
DWIDTH 11 0
BBX 11 16 0 0
BITMAP
0600
0600
0000
3FE0
30E0
21C0
0180
0300
0600
0E00
0C00
1800
3000
7040
E0C0
FFC0
ENDCHAR
STARTCHAR zdotaccent
ENCODING 380
SWIDTH 468 0
DWIDTH 10 0
BBX 9 12 0 0
BITMAP
0C00
0C00
0000
3F80
3F00
4200
0400
0800
1000
3880
7D00
8E00
ENDCHAR
STARTCHAR Zcaron
ENCODING 381
SWIDTH 622 0
DWIDTH 11 0
BBX 11 14 0 0
BITMAP
0680
0300
0000
3FE0
30C0
2180
0300
0600
0C00
1800
3000
6040
C0C0
FFC0
ENDCHAR
STARTCHAR zcaron
ENCODING 382
SWIDTH 468 0
DWIDTH 10 0
BBX 9 12 0 0
BITMAP
1A00
0C00
0000
3F80
3F00
4200
0400
0800
1000
3880
7D00
8E00
ENDCHAR
STARTCHAR uni0186
ENCODING 390
SWIDTH 661 0
DWIDTH 13 0
BBX 11 13 1 0
BITMAP
0F80
30C0
6060
4060
0060
0060
0060
0060
00C0
00C0
8180
C300
7C00
ENDCHAR
STARTCHAR uni0189
ENCODING 393
SWIDTH 770 0
DWIDTH 14 0
BBX 13 13 0 0
BITMAP
3FE0
1830
1818
1818
3018
3018
7C18
3018
6030
6030
6060
60C0
FF00
ENDCHAR
STARTCHAR uni018E
ENCODING 398
SWIDTH 596 0
DWIDTH 11 0
BBX 11 13 0 0
BITMAP
3FE0
30C0
20C0
00C0
00C0
2180
3F80
2180
0180
0300
8300
C300
FF80
ENDCHAR
STARTCHAR florin
ENCODING 402
SWIDTH 530 0
DWIDTH 10 0
BBX 12 16 -2 -3
BITMAP
00E0
0130
0300
0300
0300
0FC0
0600
0600
0600
0600
0C00
0C00
0C00
0C00
C800
7000
ENDCHAR
STARTCHAR uni0197
ENCODING 407
SWIDTH 345 0
DWIDTH 6 0
BBX 6 13 0 0
BITMAP
3C
18
18
18
30
30
FC
30
60
60
60
60
F0
ENDCHAR
STARTCHAR uni019A
ENCODING 410
SWIDTH 306 0
DWIDTH 6 0
BBX 6 14 0 0
BITMAP
38
18
18
30
30
30
FC
60
60
60
C0
C8
D0
E0
ENDCHAR
STARTCHAR uni019D
ENCODING 413
SWIDTH 763 0
DWIDTH 14 0
BBX 17 17 -3 -4
BITMAP
078380
038100
038100
02C100
04C200
046200
046200
043200
043200
0C1C00
0C1C00
0C0C00
180C00
180000
180000
D80000
700000
ENDCHAR
STARTCHAR uni019F
ENCODING 415
SWIDTH 753 0
DWIDTH 14 0
BBX 12 13 1 0
BITMAP
07C0
1860
3030
6030
6030
C030
FFF0
C030
C060
C060
C0C0
6180
3E00
ENDCHAR
STARTCHAR Ohorn
ENCODING 416
SWIDTH 753 0
DWIDTH 14 0
BBX 14 13 1 0
BITMAP
07CC
186C
3038
6038
6030
C030
C030
C030
C060
C060
C0C0
6180
3E00
ENDCHAR
STARTCHAR ohorn
ENCODING 417
SWIDTH 537 0
DWIDTH 10 0
BBX 11 9 0 0
BITMAP
0F60
31E0
61C0
61C0
C180
C300
C300
C600
7800
ENDCHAR
STARTCHAR Uhorn
ENCODING 431
SWIDTH 794 0
DWIDTH 14 0
BBX 15 13 1 0
BITMAP
787E
3036
3034
3034
6068
6060
6060
6060
C0C0
C0C0
C0C0
6180
3E00
ENDCHAR
STARTCHAR uhorn
ENCODING 432
SWIDTH 618 0
DWIDTH 12 0
BBX 13 9 0 0
BITMAP
70D8
30D8
30D0
6190
61A0
6380
C720
CB40
7380
ENDCHAR
STARTCHAR uni01B5
ENCODING 437
SWIDTH 622 0
DWIDTH 11 0
BBX 11 13 0 0
BITMAP
3FE0
30E0
21C0
0180
0300
0600
1F80
0C00
1800
3000
7040
E0C0
FFC0
ENDCHAR
STARTCHAR uni01B6
ENCODING 438
SWIDTH 468 0
DWIDTH 10 0
BBX 9 9 0 0
BITMAP
3F80
3F00
4200
0400
3F00
1000
3880
7D00
8E00
ENDCHAR
STARTCHAR uni01BB
ENCODING 443
SWIDTH 530 0
DWIDTH 10 0
BBX 9 13 0 0
BITMAP
1F00
3380
6180
6180
0180
0300
FF80
1800
3000
6000
C100
FF00
FF00
ENDCHAR
STARTCHAR uni01BC
ENCODING 444
SWIDTH 530 0
DWIDTH 10 0
BBX 9 13 0 0
BITMAP
3F80
3F00
2000
2000
4000
7E00
4700
0300
0300
0300
C300
C600
7800
ENDCHAR
STARTCHAR uni01C0
ENCODING 448
SWIDTH 270 0
DWIDTH 5 0
BBX 1 13 2 0
BITMAP
80
80
80
80
80
80
80
80
80
80
80
80
80
ENDCHAR
STARTCHAR uni01C2
ENCODING 450
SWIDTH 570 0
DWIDTH 10 0
BBX 9 13 0 -2
BITMAP
0800
0800
0800
0800
FF80
0800
0800
0800
FF80
0800
0800
0800
0800
ENDCHAR
STARTCHAR uni01C3
ENCODING 451
SWIDTH 240 0
DWIDTH 5 0
BBX 4 13 0 0
BITMAP
30
30
30
20
60
60
60
40
40
00
00
C0
C0
ENDCHAR
STARTCHAR uni01CD
ENCODING 461
SWIDTH 624 0
DWIDTH 12 0
BBX 12 16 -1 0
BITMAP
0680
0300
0000
0180
0380
0380
0580
04C0
08C0
08C0
1FC0
10C0
2060
2060
4060
E0F0
ENDCHAR
STARTCHAR uni01CE
ENCODING 462
SWIDTH 561 0
DWIDTH 11 0
BBX 10 12 0 0
BITMAP
1A00
0C00
0000
0F80
3180
6180
6300
C300
C300
C640
CE80
7300
ENDCHAR
STARTCHAR uni01CF
ENCODING 463
SWIDTH 345 0
DWIDTH 6 0
BBX 6 16 0 0
BITMAP
34
18
00
3C
18
18
18
30
30
30
30
60
60
60
60
F0
ENDCHAR
STARTCHAR uni01D0
ENCODING 464
SWIDTH 317 0
DWIDTH 6 0
BBX 5 12 0 0
BITMAP
68
30
00
70
30
30
60
60
60
C8
D0
E0
ENDCHAR
STARTCHAR uni01D1
ENCODING 465
SWIDTH 753 0
DWIDTH 14 0
BBX 12 16 1 0
BITMAP
0680
0300
0000
07C0
1860
3030
6030
6030
C030
C030
C030
C060
C060
C0C0
6180
3E00
ENDCHAR
STARTCHAR uni01D2
ENCODING 466
SWIDTH 537 0
DWIDTH 10 0
BBX 9 12 0 0
BITMAP
1A00
0C00
0000
0F00
3180
6180
6180
C180
C300
C300
C600
7800
ENDCHAR
STARTCHAR uni01D3
ENCODING 467
SWIDTH 794 0
DWIDTH 14 0
BBX 13 16 1 0
BITMAP
0680
0300
0000
7878
3030
3030
3030
6060
6060
6060
6060
C0C0
C0C0
C0C0
6180
3E00
ENDCHAR
STARTCHAR uni01D4
ENCODING 468
SWIDTH 618 0
DWIDTH 12 0
BBX 11 12 0 0
BITMAP
0D00
0600
0000
70C0
30C0
30C0
6180
6180
6380
C720
CB40
7380
ENDCHAR
STARTCHAR uni01D5
ENCODING 469
SWIDTH 794 0
DWIDTH 14 0
BBX 13 16 1 0
BITMAP
0FC0
0000
06C0
06C0
0000
7878
3030
3030
6060
6060
6060
C0C0
C0C0
C0C0
6180
3E00
ENDCHAR
STARTCHAR uni01D6
ENCODING 470
SWIDTH 618 0
DWIDTH 12 0
BBX 11 14 0 0
BITMAP
3F00
0000
1B00
1B00
0000
70C0
30C0
30C0
6180
6180
6380
C720
CB40
7380
ENDCHAR
STARTCHAR uni01D7
ENCODING 471
SWIDTH 794 0
DWIDTH 14 0
BBX 13 17 1 0
BITMAP
0180
0300
0000
06C0
06C0
0000
7878
3030
3030
6060
6060
6060
C0C0
C0C0
C0C0
6180
3E00
ENDCHAR
STARTCHAR uni01D8
ENCODING 472
SWIDTH 618 0
DWIDTH 12 0
BBX 11 15 0 0
BITMAP
0600
0C00
0000
1B00
1B00
0000
70C0
30C0
30C0
6180
6180
6380
C720
CB40
7380
ENDCHAR
STARTCHAR uni01D9
ENCODING 473
SWIDTH 794 0
DWIDTH 14 0
BBX 13 17 1 0
BITMAP
0680
0300
0000
06C0
06C0
0000
7878
3030
3030
6060
6060
6060
C0C0
C0C0
C0C0
6180
3E00
ENDCHAR
STARTCHAR uni01DA
ENCODING 474
SWIDTH 618 0
DWIDTH 12 0
BBX 11 15 0 0
BITMAP
1A00
0C00
0000
1B00
1B00
0000
70C0
30C0
30C0
6180
6180
6380
C720
CB40
7380
ENDCHAR
STARTCHAR uni01DB
ENCODING 475
SWIDTH 794 0
DWIDTH 14 0
BBX 13 17 1 0
BITMAP
0600
0300
0000
06C0
06C0
0000
7878
3030
3030
6060
6060
6060
C0C0
C0C0
C0C0
6180
3E00
ENDCHAR
STARTCHAR uni01DC
ENCODING 476
SWIDTH 618 0
DWIDTH 12 0
BBX 11 15 0 0
BITMAP
0C00
0600
0000
1B00
1B00
0000
70C0
30C0
30C0
6180
6180
6380
C720
CB40
7380
ENDCHAR
STARTCHAR uni01DD
ENCODING 477
SWIDTH 453 0
DWIDTH 9 0
BBX 8 9 0 0
BITMAP
1E
23
43
0F
33
66
C6
CC
70
ENDCHAR
STARTCHAR uni01DE
ENCODING 478
SWIDTH 624 0
DWIDTH 12 0
BBX 12 16 -1 0
BITMAP
0FC0
0000
06C0
06C0
0000
0180
0380
0380
04C0
08C0
08C0
1FC0
2060
2060
4060
E0F0
ENDCHAR
STARTCHAR uni01DF
ENCODING 479
SWIDTH 561 0
DWIDTH 11 0
BBX 10 14 0 0
BITMAP
1F80
0000
0D80
0D80
0000
0F80
3180
6180
6300
C300
C300
C640
CE80
7300
ENDCHAR
STARTCHAR uni01E0
ENCODING 480
SWIDTH 624 0
DWIDTH 12 0
BBX 12 18 -1 0
BITMAP
0FC0
0000
0300
0300
0000
0180
0380
0380
0580
04C0
08C0
08C0
1FC0
10C0
2060
2060
4060
E0F0
ENDCHAR
STARTCHAR uni01E1
ENCODING 481
SWIDTH 561 0
DWIDTH 11 0
BBX 10 14 0 0
BITMAP
1F80
0000
0C00
0C00
0000
0F80
3180
6180
6300
C300
C300
C640
CE80
7300
ENDCHAR
STARTCHAR uni01E2
ENCODING 482
SWIDTH 880 0
DWIDTH 17 0
BBX 17 15 0 0
BITMAP
01F800
000000
03FF80
00E180
016080
026000
02C000
04C200
08FE00
08C200
1F8000
218000
218200
418600
E3FE00
ENDCHAR
STARTCHAR uni01E3
ENCODING 483
SWIDTH 779 0
DWIDTH 15 0
BBX 14 12 0 0
BITMAP
07E0
0000
0080
0FB8
31CC
618C
6198
C330
C3C0
C708
CB10
71E0
ENDCHAR
STARTCHAR uni01E4
ENCODING 484
SWIDTH 709 0
DWIDTH 13 0
BBX 12 13 1 0
BITMAP
07C0
1860
3020
6000
6000
C000
C000
C1E0
C0C0
C3F0
C0C0
6180
3E00
ENDCHAR
STARTCHAR uni01E5
ENCODING 485
SWIDTH 499 0
DWIDTH 10 0
BBX 11 13 -1 -4
BITMAP
07E0
18C0
30C0
3080
3100
1E00
3000
3C00
6F00
FFE0
8180
C300
7E00
ENDCHAR
STARTCHAR Gcaron
ENCODING 486
SWIDTH 709 0
DWIDTH 13 0
BBX 11 16 1 0
BITMAP
0D00
0600
0000
07C0
1860
3020
6000
6000
C000
C000
C1E0
C0C0
C0C0
C0C0
6180
3E00
ENDCHAR
STARTCHAR gcaron
ENCODING 487
SWIDTH 499 0
DWIDTH 10 0
BBX 11 16 -1 -4
BITMAP
0D00
0600
0000
07E0
18C0
30C0
3080
3100
1E00
3000
3C00
6F00
C380
8180
C300
7E00
ENDCHAR
STARTCHAR uni01E8
ENCODING 488
SWIDTH 650 0
DWIDTH 12 0
BBX 12 16 0 0
BITMAP
0D00
0600
0000
3E70
1820
1840
1880
3100
3200
3C00
3600
6300
6380
6180
60C0
F0E0
ENDCHAR
STARTCHAR uni01E9
ENCODING 489
SWIDTH 545 0
DWIDTH 10 0
BBX 10 17 0 0
BITMAP
3400
1800
0000
3800
1800
1800
3000
3000
3180
3380
6400
6800
7C00
6C00
C600
C740
C380
ENDCHAR
STARTCHAR uni01EA
ENCODING 490
SWIDTH 753 0
DWIDTH 14 0
BBX 12 17 1 -4
BITMAP
07C0
1860
3030
6030
6030
C030
C030
C030
C060
C060
C0C0
6180
3E00
0400
0800
1000
1C00
ENDCHAR
STARTCHAR uni01EB
ENCODING 491
SWIDTH 537 0
DWIDTH 10 0
BBX 9 13 0 -4
BITMAP
0F00
3180
6180
6180
C180
C300
C300
C600
7800
0800
1000
2000
3800
ENDCHAR
STARTCHAR uni01EC
ENCODING 492
SWIDTH 753 0
DWIDTH 14 0
BBX 12 19 1 -4
BITMAP
0FC0
0000
07C0
1860
3030
6030
6030
C030
C030
C030
C060
C060
C0C0
6180
3E00
0400
0800
1000
1C00
ENDCHAR
STARTCHAR uni01ED
ENCODING 493
SWIDTH 537 0
DWIDTH 10 0
BBX 9 15 0 -4
BITMAP
3F00
0000
0F00
3180
6180
6180
C180
C300
C300
C600
7800
0800
1000
2000
3800
ENDCHAR
STARTCHAR uni01F0
ENCODING 496
SWIDTH 309 0
DWIDTH 6 0
BBX 8 16 -3 -4
BITMAP
1A
0C
00
0E
06
06
06
0C
0C
0C
0C
18
18
18
D8
70
ENDCHAR
STARTCHAR uni01F4
ENCODING 500
SWIDTH 709 0
DWIDTH 13 0
BBX 11 16 1 0
BITMAP
0300
0600
0000
07C0
1860
3020
6000
6000
C000
C000
C1E0
C0C0
C0C0
C0C0
6180
3E00
ENDCHAR
STARTCHAR uni01F5
ENCODING 501
SWIDTH 499 0
DWIDTH 10 0
BBX 11 16 -1 -4
BITMAP
0300
0600
0000
07E0
18C0
30C0
3080
3100
1E00
3000
3C00
6F00
C380
8180
C300
7E00
ENDCHAR
STARTCHAR uni01F8
ENCODING 504
SWIDTH 763 0
DWIDTH 14 0
BBX 14 16 0 0
BITMAP
0600
0300
0000
3C1C
1C08
1C08
1608
2610
2310
2310
2190
2190
40E0
40E0
4060
E060
ENDCHAR
STARTCHAR uni01F9
ENCODING 505
SWIDTH 618 0
DWIDTH 12 0
BBX 11 12 0 0
BITMAP
0C00
0600
0000
7380
34C0
38C0
7180
6180
6180
C320
C340
C380
ENDCHAR
STARTCHAR Aringacute
ENCODING 506
SWIDTH 624 0
DWIDTH 12 0
BBX 12 17 -1 0
BITMAP
0180
0300
0000
0180
0240
0180
0180
0380
0380
04C0
08C0
08C0
1FC0
2060
2060
4060
E0F0
ENDCHAR
STARTCHAR aringacute
ENCODING 507
SWIDTH 561 0
DWIDTH 11 0
BBX 10 16 0 0
BITMAP
0300
0600
0000
0600
0900
0600
0000
0F80
3180
6180
6300
C300
C300
C640
CE80
7300
ENDCHAR
STARTCHAR AEacute
ENCODING 508
SWIDTH 880 0
DWIDTH 17 0
BBX 17 16 0 0
BITMAP
003000
006000
000000
03FF80
00E180
016080
026000
02C000
04C200
08FE00
08C200
1F8000
218000
218200
418600
E3FE00
ENDCHAR
STARTCHAR aeacute
ENCODING 509
SWIDTH 779 0
DWIDTH 15 0
BBX 14 13 0 0
BITMAP
00C0
0180
0000
0080
0FB8
31CC
618C
6198
C330
C3C0
C708
CB10
71E0
ENDCHAR
STARTCHAR Oslashacute
ENCODING 510
SWIDTH 753 0
DWIDTH 14 0
BBX 12 18 1 -1
BITMAP
0180
0300
0000
0020
07C0
1860
30B0
6130
6130
C230
C430
C430
C860
D060
D0C0
6180
3E00
4000
ENDCHAR
STARTCHAR oslashacute
ENCODING 511
SWIDTH 537 0
DWIDTH 10 0
BBX 11 12 -1 0
BITMAP
0300
0600
0000
07A0
18C0
31C0
32C0
64C0
6980
7180
6300
BC00
ENDCHAR
STARTCHAR Scommaaccent
ENCODING 536
SWIDTH 533 0
DWIDTH 10 0
BBX 10 19 0 -6
BITMAP
0780
18C0
3040
3000
3800
1C00
0700
0380
0180
8180
C180
E300
3C00
0000
0C00
0C00
0800
0800
1000
ENDCHAR
STARTCHAR scommaaccent
ENCODING 537
SWIDTH 389 0
DWIDTH 8 0
BBX 7 15 0 -6
BITMAP
1C
26
60
70
38
1C
0C
C8
70
00
30
30
20
20
40
ENDCHAR
STARTCHAR Tcommaaccent
ENCODING 538
SWIDTH 606 0
DWIDTH 13 0
BBX 12 19 1 -6
BITMAP
FFF0
C630
8610
0600
0C00
0C00
0C00
0C00
1800
1800
1800
1800
3C00
0000
0C00
0C00
0800
0800
1000
ENDCHAR
STARTCHAR tcommaaccent
ENCODING 539
SWIDTH 341 0
DWIDTH 6 0
BBX 6 17 0 -6
BITMAP
10
30
FC
30
60
60
60
C0
C8
D0
E0
00
60
60
40
40
80
ENDCHAR
STARTCHAR uni021E
ENCODING 542
SWIDTH 775 0
DWIDTH 14 0
BBX 14 16 0 0
BITMAP
0340
0180
0000
3C3C
1818
1818
1818
3030
3030
3FF0
3030
6060
6060
6060
6060
F0F0
ENDCHAR
STARTCHAR uni021F
ENCODING 543
SWIDTH 607 0
DWIDTH 12 0
BBX 11 17 0 0
BITMAP
3400
1800
0000
3800
1800
1800
1800
3000
3380
34C0
68C0
7180
6180
6180
C320
C340
C380
ENDCHAR
STARTCHAR uni0226
ENCODING 550
SWIDTH 624 0
DWIDTH 12 0
BBX 12 16 -1 0
BITMAP
0300
0300
0000
0180
0380
0380
0580
04C0
08C0
08C0
1FC0
10C0
2060
2060
4060
E0F0
ENDCHAR
STARTCHAR uni0227
ENCODING 551
SWIDTH 561 0
DWIDTH 11 0
BBX 10 12 0 0
BITMAP
0C00
0C00
0000
0F80
3180
6180
6300
C300
C300
C640
CE80
7300
ENDCHAR
STARTCHAR uni0228
ENCODING 552
SWIDTH 596 0
DWIDTH 11 0
BBX 11 17 0 -4
BITMAP
3FE0
1860
1820
1800
3000
3080
3F80
3080
6000
6000
6080
6180
FF80
0800
0C00
0400
1800
ENDCHAR
STARTCHAR uni0229
ENCODING 553
SWIDTH 453 0
DWIDTH 9 0
BBX 8 13 0 -4
BITMAP
0E
33
63
66
CC
F0
C2
C4
78
20
30
10
60
ENDCHAR
STARTCHAR uni022A
ENCODING 554
SWIDTH 753 0
DWIDTH 14 0
BBX 12 16 1 0
BITMAP
0FC0
0000
06C0
06C0
0000
07C0
1860
3030
6030
6030
C030
C060
C060
C0C0
6180
3E00
ENDCHAR
STARTCHAR uni022B
ENCODING 555
SWIDTH 537 0
DWIDTH 10 0
BBX 9 14 0 0
BITMAP
3F00
0000
1B00
1B00
0000
0F00
3180
6180
6180
C180
C300
C300
C600
7800
ENDCHAR
STARTCHAR uni022C
ENCODING 556
SWIDTH 753 0
DWIDTH 14 0
BBX 12 16 1 0
BITMAP
0FC0
0000
0740
0980
0000
07C0
1860
3030
6030
6030
C030
C060
C060
C0C0
6180
3E00
ENDCHAR
STARTCHAR uni022D
ENCODING 557
SWIDTH 537 0
DWIDTH 10 0
BBX 9 14 0 0
BITMAP
1F80
0000
0E80
1300
0000
0F00
3180
6180
6180
C180
C300
C300
C600
7800
ENDCHAR
STARTCHAR uni022E
ENCODING 558
SWIDTH 753 0
DWIDTH 14 0
BBX 12 16 1 0
BITMAP
0300
0300
0000
07C0
1860
3030
6030
6030
C030
C030
C030
C060
C060
C0C0
6180
3E00
ENDCHAR
STARTCHAR uni022F
ENCODING 559
SWIDTH 537 0
DWIDTH 10 0
BBX 9 12 0 0
BITMAP
0C00
0C00
0000
0F00
3180
6180
6180
C180
C300
C300
C600
7800
ENDCHAR
STARTCHAR uni0230
ENCODING 560
SWIDTH 753 0
DWIDTH 14 0
BBX 12 18 1 0
BITMAP
0FC0
0000
0300
0300
0000
07C0
1860
3030
6030
6030
C030
C030
C030
C060
C060
C0C0
6180
3E00
ENDCHAR
STARTCHAR uni0231
ENCODING 561
SWIDTH 537 0
DWIDTH 10 0
BBX 9 14 0 0
BITMAP
3F00
0000
0C00
0C00
0000
0F00
3180
6180
6180
C180
C300
C300
C600
7800
ENDCHAR
STARTCHAR uni0232
ENCODING 562
SWIDTH 591 0
DWIDTH 11 0
BBX 11 15 1 0
BITMAP
3F00
0000
F0E0
6040
6080
3100
3200
3400
1800
1800
1800
3000
3000
3000
7800
ENDCHAR
STARTCHAR uni0233
ENCODING 563
SWIDTH 468 0
DWIDTH 8 0
BBX 10 15 -2 -4
BITMAP
1F80
0000
38C0
18C0
1880
1900
0D00
0E00
0E00
0C00
0C00
0800
1800
D000
6000
ENDCHAR
STARTCHAR uni0250
ENCODING 592
SWIDTH 561 0
DWIDTH 11 0
BBX 10 9 0 0
BITMAP
3380
5CC0
98C0
30C0
30C0
3180
6180
6300
7C00
ENDCHAR
STARTCHAR uni0259
ENCODING 601
SWIDTH 453 0
DWIDTH 9 0
BBX 8 9 0 0
BITMAP
1E
23
43
0F
33
66
C6
CC
70
ENDCHAR
STARTCHAR uni025F
ENCODING 607
SWIDTH 315 0
DWIDTH 6 0
BBX 11 18 -3 -9
BITMAP
00C0
0160
0300
0300
0300
0600
0600
0600
0600
0C00
0C00
0C00
7E00
1800
1800
1800
D000
6000
ENDCHAR
STARTCHAR uni0265
ENCODING 613
SWIDTH 607 0
DWIDTH 12 0
BBX 11 14 0 -5
BITMAP
3860
5860
9860
30C0
30C0
31C0
62C0
6580
3980
0180
0300
0300
0300
0380
ENDCHAR
STARTCHAR uni0275
ENCODING 629
SWIDTH 537 0
DWIDTH 10 0
BBX 9 9 0 0
BITMAP
0F00
3180
6180
6180
FF80
C300
C300
C600
7800
ENDCHAR
STARTCHAR uni0279
ENCODING 633
SWIDTH 402 0
DWIDTH 8 0
BBX 8 9 0 0
BITMAP
03
03
03
06
06
0E
1C
EC
CE
ENDCHAR
STARTCHAR uni0287
ENCODING 647
SWIDTH 341 0
DWIDTH 6 0
BBX 6 11 0 0
BITMAP
1C
2C
4C
0C
18
18
18
30
FC
30
20
ENDCHAR
STARTCHAR uni0289
ENCODING 649
SWIDTH 618 0
DWIDTH 12 0
BBX 11 9 0 0
BITMAP
70C0
30C0
30C0
6180
FFE0
6380
C720
CB40
7380
ENDCHAR
STARTCHAR uni028C
ENCODING 652
SWIDTH 510 0
DWIDTH 10 0
BBX 8 9 1 0
BITMAP
0E
13
23
63
43
C6
C6
C6
C7
ENDCHAR
STARTCHAR uni028D
ENCODING 653
SWIDTH 785 0
DWIDTH 15 0
BBX 13 9 1 0
BITMAP
0E70
1398
2318
6318
4318
C630
C630
C630
C638
ENDCHAR
STARTCHAR uni028E
ENCODING 654
SWIDTH 468 0
DWIDTH 8 0
BBX 10 13 -2 0
BITMAP
0180
02C0
0600
0400
0C00
0C00
1C00
1C00
2C00
2600
4600
C600
C700
ENDCHAR
STARTCHAR uni029E
ENCODING 670
SWIDTH 545 0
DWIDTH 10 0
BBX 10 14 0 -5
BITMAP
70C0
B8C0
18C0
0D80
0F80
0580
0980
7300
6300
0300
0300
0600
0600
0700
ENDCHAR
STARTCHAR uni02BB
ENCODING 699
SWIDTH 216 0
DWIDTH 5 0
BBX 3 5 2 8
BITMAP
20
40
40
C0
C0
ENDCHAR
STARTCHAR afii57929
ENCODING 700
SWIDTH 216 0
DWIDTH 5 0
BBX 3 5 1 8
BITMAP
60
60
40
40
80
ENDCHAR
STARTCHAR afii64937
ENCODING 701
SWIDTH 216 0
DWIDTH 5 0
BBX 3 5 1 8
BITMAP
C0
C0
40
40
20
ENDCHAR
STARTCHAR circumflex
ENCODING 710
SWIDTH 400 0
DWIDTH 7 0
BBX 4 2 1 10
BITMAP
60
B0
ENDCHAR
STARTCHAR caron
ENCODING 711
SWIDTH 400 0
DWIDTH 7 0
BBX 4 2 1 10
BITMAP
D0
60
ENDCHAR
STARTCHAR uni02C8
ENCODING 712
SWIDTH 216 0
DWIDTH 5 0
BBX 2 5 3 8
BITMAP
C0
C0
80
80
80
ENDCHAR
STARTCHAR macron
ENCODING 713
SWIDTH 400 0
DWIDTH 7 0
BBX 6 1 0 10
BITMAP
FC
ENDCHAR
STARTCHAR uni02CA
ENCODING 714
SWIDTH 400 0
DWIDTH 7 0
BBX 3 2 2 10
BITMAP
60
C0
ENDCHAR
STARTCHAR uni02CB
ENCODING 715
SWIDTH 400 0
DWIDTH 7 0
BBX 3 2 2 10
BITMAP
C0
60
ENDCHAR
STARTCHAR uni02CD
ENCODING 717
SWIDTH 400 0
DWIDTH 7 0
BBX 6 1 0 -2
BITMAP
FC
ENDCHAR
STARTCHAR uni02CE
ENCODING 718
SWIDTH 400 0
DWIDTH 7 0
BBX 3 2 2 -3
BITMAP
C0
60
ENDCHAR
STARTCHAR uni02CF
ENCODING 719
SWIDTH 400 0
DWIDTH 7 0
BBX 3 2 2 -3
BITMAP
60
C0
ENDCHAR
STARTCHAR breve
ENCODING 728
SWIDTH 400 0
DWIDTH 7 0
BBX 5 2 1 10
BITMAP
88
70
ENDCHAR
STARTCHAR dotaccent
ENCODING 729
SWIDTH 402 0
DWIDTH 7 0
BBX 2 2 2 10
BITMAP
C0
C0
ENDCHAR
STARTCHAR ring
ENCODING 730
SWIDTH 400 0
DWIDTH 7 0
BBX 4 3 1 10
BITMAP
60
90
60
ENDCHAR
STARTCHAR ogonek
ENCODING 731
SWIDTH 350 0
DWIDTH 6 0
BBX 3 4 1 -4
BITMAP
20
40
80
E0
ENDCHAR
STARTCHAR tilde
ENCODING 732
SWIDTH 400 0
DWIDTH 7 0
BBX 6 2 0 10
BITMAP
74
98
ENDCHAR
STARTCHAR hungarumlaut
ENCODING 733
SWIDTH 400 0
DWIDTH 7 0
BBX 5 3 1 10
BITMAP
48
D8
90
ENDCHAR
STARTCHAR uni02EE
ENCODING 750
SWIDTH 402 0
DWIDTH 7 0
BBX 6 5 1 8
BITMAP
6C
6C
48
48
90
ENDCHAR
STARTCHAR uni037E
ENCODING 894
SWIDTH 265 0
DWIDTH 5 0
BBX 4 12 -1 -3
BITMAP
30
30
00
00
00
00
00
60
60
40
40
80
ENDCHAR
STARTCHAR tonos
ENCODING 900
SWIDTH 400 0
DWIDTH 7 0
BBX 3 2 2 10
BITMAP
60
C0
ENDCHAR
STARTCHAR dieresistonos
ENCODING 901
SWIDTH 400 0
DWIDTH 7 0
BBX 5 5 1 10
BITMAP
30
60
00
D8
D8
ENDCHAR
STARTCHAR anoteleia
ENCODING 903
SWIDTH 265 0
DWIDTH 5 0
BBX 2 2 1 4
BITMAP
C0
C0
ENDCHAR
STARTCHAR mu
ENCODING 956
SWIDTH 618 0
DWIDTH 11 0
BBX 12 13 -1 -4
BITMAP
3860
1860
1860
30C0
30C0
31C0
6390
65A0
79C0
4000
C000
C000
C000
ENDCHAR
STARTCHAR uni1E00
ENCODING 7680
SWIDTH 624 0
DWIDTH 12 0
BBX 12 17 -1 -4
BITMAP
0180
0380
0380
0580
04C0
08C0
08C0
1FC0
10C0
2060
2060
4060
E0F0
0000
0300
0480
0300
ENDCHAR
STARTCHAR uni1E01
ENCODING 7681
SWIDTH 561 0
DWIDTH 11 0
BBX 10 13 0 -4
BITMAP
0F80
3180
6180
6300
C300
C300
C640
CE80
7300
0000
0C00
1200
0C00
ENDCHAR
STARTCHAR uni1E02
ENCODING 7682
SWIDTH 632 0
DWIDTH 12 0
BBX 11 16 0 0
BITMAP
0600
0600
0000
3F80
18C0
1860
1860
3060
30C0
3F80
3180
60C0
60C0
60C0
6180
FF00
ENDCHAR
STARTCHAR uni1E03
ENCODING 7683
SWIDTH 559 0
DWIDTH 10 0
BBX 9 17 0 0
BITMAP
1800
1800
0000
3800
1800
1800
3000
3000
3700
6980
7180
6180
6180
C300
C300
E600
D800
ENDCHAR
STARTCHAR uni1E04
ENCODING 7684
SWIDTH 632 0
DWIDTH 12 0
BBX 11 16 0 -3
BITMAP
3F80
18C0
1860
1860
3060
30C0
3F80
3180
60C0
60C0
60C0
6180
FF00
0000
0C00
0C00
ENDCHAR
STARTCHAR uni1E05
ENCODING 7685
SWIDTH 559 0
DWIDTH 10 0
BBX 9 17 0 -3
BITMAP
3800
1800
1800
3000
3000
3700
6980
7180
6180
6180
C300
C300
E600
D800
0000
1800
1800
ENDCHAR
STARTCHAR uni1E06
ENCODING 7686
SWIDTH 632 0
DWIDTH 12 0
BBX 11 15 0 -2
BITMAP
3F80
18C0
1860
1860
3060
30C0
3F80
3180
60C0
60C0
60C0
6180
FF00
0000
3F00
ENDCHAR
STARTCHAR uni1E07
ENCODING 7687
SWIDTH 559 0
DWIDTH 10 0
BBX 9 16 0 -2
BITMAP
3800
1800
1800
3000
3000
3700
6980
7180
6180
6180
C300
C300
E600
D800
0000
7E00
ENDCHAR
STARTCHAR uni1E08
ENCODING 7688
SWIDTH 661 0
DWIDTH 13 0
BBX 11 20 1 -4
BITMAP
0600
0C00
0000
07C0
1860
3020
6000
6000
C000
C000
C000
C000
C040
C0C0
6180
3E00
1000
1800
0800
3000
ENDCHAR
STARTCHAR uni1E09
ENCODING 7689
SWIDTH 441 0
DWIDTH 8 0
BBX 8 16 0 -4
BITMAP
0C
18
00
0E
33
60
60
C0
C0
C2
C4
78
20
30
10
60
ENDCHAR
STARTCHAR uni1E0A
ENCODING 7690
SWIDTH 763 0
DWIDTH 14 0
BBX 13 16 0 0
BITMAP
0300
0300
0000
3FE0
1830
1818
1818
3018
3018
3018
3018
6030
6030
6060
60C0
FF00
ENDCHAR
STARTCHAR uni1E0B
ENCODING 7691
SWIDTH 587 0
DWIDTH 11 0
BBX 10 17 0 0
BITMAP
0180
0180
0000
01C0
00C0
00C0
00C0
0180
0F80
3180
6180
6300
C300
C300
C640
CE80
7300
ENDCHAR
STARTCHAR uni1E0C
ENCODING 7692
SWIDTH 763 0
DWIDTH 14 0
BBX 13 16 0 -3
BITMAP
3FE0
1830
1818
1818
3018
3018
3018
3018
6030
6030
6060
60C0
FF00
0000
0600
0600
ENDCHAR
STARTCHAR uni1E0D
ENCODING 7693
SWIDTH 587 0
DWIDTH 11 0
BBX 10 17 0 -3
BITMAP
01C0
00C0
00C0
00C0
0180
0F80
3180
6180
6300
C300
C300
C640
CE80
7300
0000
0C00
0C00
ENDCHAR
STARTCHAR uni1E0E
ENCODING 7694
SWIDTH 763 0
DWIDTH 14 0
BBX 13 15 0 -2
BITMAP
3FE0
1830
1818
1818
3018
3018
3018
3018
6030
6030
6060
60C0
FF00
0000
1F80
ENDCHAR
STARTCHAR uni1E0F
ENCODING 7695
SWIDTH 587 0
DWIDTH 11 0
BBX 10 16 0 -2
BITMAP
01C0
00C0
00C0
00C0
0180
0F80
3180
6180
6300
C300
C300
C640
CE80
7300
0000
3F00
ENDCHAR
STARTCHAR uni1E10
ENCODING 7696
SWIDTH 763 0
DWIDTH 14 0
BBX 13 17 0 -4
BITMAP
3FE0
1830
1818
1818
3018
3018
3018
3018
6030
6030
6060
60C0
FF00
0400
0600
0200
0C00
ENDCHAR
STARTCHAR uni1E11
ENCODING 7697
SWIDTH 587 0
DWIDTH 11 0
BBX 10 18 0 -4
BITMAP
01C0
00C0
00C0
00C0
0180
0F80
3180
6180
6300
C300
C300
C640
CE80
7300
0800
0C00
0400
1800
ENDCHAR
STARTCHAR uni1E12
ENCODING 7698
SWIDTH 763 0
DWIDTH 14 0
BBX 13 16 0 -3
BITMAP
3FE0
1830
1818
1818
3018
3018
3018
3018
6030
6030
6060
60C0
FF00
0000
0600
0B00
ENDCHAR
STARTCHAR uni1E13
ENCODING 7699
SWIDTH 587 0
DWIDTH 11 0
BBX 10 17 0 -3
BITMAP
01C0
00C0
00C0
00C0
0180
0F80
3180
6180
6300
C300
C300
C640
CE80
7300
0000
0C00
1600
ENDCHAR
STARTCHAR uni1E14
ENCODING 7700
SWIDTH 596 0
DWIDTH 11 0
BBX 11 18 0 0
BITMAP
0C00
0600
0000
1F80
0000
3FE0
1860
1820
1800
3000
3080
3F80
3080
6000
6000
6080
6180
FF80
ENDCHAR
STARTCHAR uni1E15
ENCODING 7701
SWIDTH 453 0
DWIDTH 9 0
BBX 8 14 0 0
BITMAP
18
0C
00
3F
00
0E
33
63
66
CC
F0
C2
C4
78
ENDCHAR
STARTCHAR uni1E16
ENCODING 7702
SWIDTH 596 0
DWIDTH 11 0
BBX 11 18 0 0
BITMAP
0300
0600
0000
1F80
0000
3FE0
1860
1820
1800
3000
3080
3F80
3080
6000
6000
6080
6180
FF80
ENDCHAR
STARTCHAR uni1E17
ENCODING 7703
SWIDTH 453 0
DWIDTH 9 0
BBX 8 14 0 0
BITMAP
06
0C
00
3F
00
0E
33
63
66
CC
F0
C2
C4
78
ENDCHAR
STARTCHAR uni1E18
ENCODING 7704
SWIDTH 596 0
DWIDTH 11 0
BBX 11 16 0 -3
BITMAP
3FE0
1860
1820
1800
3000
3080
3F80
3080
6000
6000
6080
6180
FF80
0000
0C00
1600
ENDCHAR
STARTCHAR uni1E19
ENCODING 7705
SWIDTH 453 0
DWIDTH 9 0
BBX 8 12 0 -3
BITMAP
0E
33
63
66
CC
F0
C2
C4
78
00
30
58
ENDCHAR
STARTCHAR uni1E1A
ENCODING 7706
SWIDTH 596 0
DWIDTH 11 0
BBX 11 16 0 -3
BITMAP
3FE0
1860
1820
1800
3000
3080
3F80
3080
6000
6000
6080
6180
FF80
0000
1D00
2600
ENDCHAR
STARTCHAR uni1E1B
ENCODING 7707
SWIDTH 453 0
DWIDTH 9 0
BBX 8 12 0 -3
BITMAP
0E
33
63
66
CC
F0
C2
C4
78
00
74
98
ENDCHAR
STARTCHAR uni1E1C
ENCODING 7708
SWIDTH 596 0
DWIDTH 11 0
BBX 11 20 0 -4
BITMAP
1100
0E00
0000
3FE0
1860
1820
1800
3000
3080
3F80
3080
6000
6000
6080
6180
FF80
0800
0C00
0400
1800
ENDCHAR
STARTCHAR uni1E1D
ENCODING 7709
SWIDTH 453 0
DWIDTH 9 0
BBX 8 16 0 -4
BITMAP
22
1C
00
0E
33
63
66
CC
F0
C2
C4
78
20
30
10
60
ENDCHAR
STARTCHAR uni1E1E
ENCODING 7710
SWIDTH 571 0
DWIDTH 11 0
BBX 11 16 0 0
BITMAP
0600
0600
0000
3FE0
1860
1820
1800
3000
3080
3F80
3080
6000
6000
6000
6000
F000
ENDCHAR
STARTCHAR uni1E1F
ENCODING 7711
SWIDTH 315 0
DWIDTH 6 0
BBX 11 21 -3 -4
BITMAP
0300
0300
0000
00C0
0160
0300
0300
0300
0FC0
0600
0600
0600
0C00
0C00
0C00
0C00
1800
1800
1800
D000
6000
ENDCHAR
STARTCHAR uni1E20
ENCODING 7712
SWIDTH 709 0
DWIDTH 13 0
BBX 11 15 1 0
BITMAP
1F80
0000
07C0
1860
3020
6000
6000
C000
C000
C1E0
C0C0
C0C0
C0C0
6180
3E00
ENDCHAR
STARTCHAR uni1E21
ENCODING 7713
SWIDTH 499 0
DWIDTH 10 0
BBX 11 15 -1 -4
BITMAP
1F80
0000
07E0
18C0
30C0
3080
3100
1E00
3000
3C00
6F00
C380
8180
C300
7E00
ENDCHAR
STARTCHAR uni1E22
ENCODING 7714
SWIDTH 775 0
DWIDTH 14 0
BBX 14 16 0 0
BITMAP
0180
0180
0000
3C3C
1818
1818
1818
3030
3030
3FF0
3030
6060
6060
6060
6060
F0F0
ENDCHAR
STARTCHAR uni1E23
ENCODING 7715
SWIDTH 607 0
DWIDTH 12 0
BBX 11 17 0 0
BITMAP
1800
1800
0000
3800
1800
1800
1800
3000
3380
34C0
68C0
7180
6180
6180
C320
C340
C380
ENDCHAR
STARTCHAR uni1E24
ENCODING 7716
SWIDTH 775 0
DWIDTH 14 0
BBX 14 16 0 -3
BITMAP
3C3C
1818
1818
1818
3030
3030
3FF0
3030
6060
6060
6060
6060
F0F0
0000
0600
0600
ENDCHAR
STARTCHAR uni1E25
ENCODING 7717
SWIDTH 607 0
DWIDTH 12 0
BBX 11 17 0 -3
BITMAP
3800
1800
1800
1800
3000
3380
34C0
68C0
7180
6180
6180
C320
C340
C380
0000
0C00
0C00
ENDCHAR
STARTCHAR uni1E26
ENCODING 7718
SWIDTH 775 0
DWIDTH 14 0
BBX 14 16 0 0
BITMAP
06C0
06C0
0000
3C3C
1818
1818
1818
3030
3030
3FF0
3030
6060
6060
6060
6060
F0F0
ENDCHAR
STARTCHAR uni1E27
ENCODING 7719
SWIDTH 607 0
DWIDTH 12 0
BBX 11 17 0 0
BITMAP
3600
3600
0000
3800
1800
1800
1800
3000
3380
34C0
68C0
7180
6180
6180
C320
C340
C380
ENDCHAR
STARTCHAR uni1E28
ENCODING 7720
SWIDTH 775 0
DWIDTH 14 0
BBX 14 17 0 -4
BITMAP
3C3C
1818
1818
1818
3030
3030
3FF0
3030
6060
6060
6060
6060
F0F0
0200
0300
0100
0600
ENDCHAR
STARTCHAR uni1E29
ENCODING 7721
SWIDTH 607 0
DWIDTH 12 0
BBX 11 18 0 -4
BITMAP
3800
1800
1800
1800
3000
3380
34C0
68C0
7180
6180
6180
C320
C340
C380
0800
0C00
0400
1800
ENDCHAR
STARTCHAR uni1E2A
ENCODING 7722
SWIDTH 775 0
DWIDTH 14 0
BBX 14 16 0 -3
BITMAP
3C3C
1818
1818
1818
3030
3030
3FF0
3030
6060
6060
6060
6060
F0F0
0000
0880
0700
ENDCHAR
STARTCHAR uni1E2B
ENCODING 7723
SWIDTH 607 0
DWIDTH 12 0
BBX 11 17 0 -3
BITMAP
3800
1800
1800
1800
3000
3380
34C0
68C0
7180
6180
6180
C320
C340
C380
0000
1100
0E00
ENDCHAR
STARTCHAR uni1E2C
ENCODING 7724
SWIDTH 345 0
DWIDTH 6 0
BBX 7 16 -1 -3
BITMAP
1E
0C
0C
0C
18
18
18
18
30
30
30
30
78
00
74
98
ENDCHAR
STARTCHAR uni1E2D
ENCODING 7725
SWIDTH 317 0
DWIDTH 6 0
BBX 6 16 -1 -3
BITMAP
0C
0C
00
00
38
18
18
30
30
30
64
68
70
00
74
98
ENDCHAR
STARTCHAR uni1E2E
ENCODING 7726
SWIDTH 345 0
DWIDTH 6 0
BBX 7 17 0 0
BITMAP
0C
18
00
36
36
00
3C
18
18
30
30
30
30
60
60
60
F0
ENDCHAR
STARTCHAR uni1E2F
ENCODING 7727
SWIDTH 317 0
DWIDTH 6 0
BBX 5 15 0 0
BITMAP
30
60
00
D8
D8
00
70
30
30
60
60
60
C8
D0
E0
ENDCHAR
STARTCHAR uni1E30
ENCODING 7728
SWIDTH 650 0
DWIDTH 12 0
BBX 12 16 0 0
BITMAP
0300
0600
0000
3E70
1820
1840
1880
3100
3200
3C00
3600
6300
6380
6180
60C0
F0E0
ENDCHAR
STARTCHAR uni1E31
ENCODING 7729
SWIDTH 545 0
DWIDTH 10 0
BBX 10 17 0 0
BITMAP
0C00
1800
0000
3800
1800
1800
3000
3000
3180
3380
6400
6800
7C00
6C00
C600
C740
C380
ENDCHAR
STARTCHAR uni1E32
ENCODING 7730
SWIDTH 650 0
DWIDTH 12 0
BBX 12 16 0 -3
BITMAP
3E70
1820
1840
1880
3100
3200
3C00
3600
6300
6380
6180
60C0
F0E0
0000
0600
0600
ENDCHAR
STARTCHAR uni1E33
ENCODING 7731
SWIDTH 545 0
DWIDTH 10 0
BBX 10 17 0 -3
BITMAP
3800
1800
1800
3000
3000
3180
3380
6400
6800
7C00
6C00
C600
C740
C380
0000
0C00
0C00
ENDCHAR
STARTCHAR uni1E34
ENCODING 7732
SWIDTH 650 0
DWIDTH 12 0
BBX 12 15 0 -2
BITMAP
3E70
1820
1840
1880
3100
3200
3C00
3600
6300
6380
6180
60C0
F0E0
0000
1F80
ENDCHAR
STARTCHAR uni1E35
ENCODING 7733
SWIDTH 545 0
DWIDTH 10 0
BBX 10 16 0 -2
BITMAP
3800
1800
1800
3000
3000
3180
3380
6400
6800
7C00
6C00
C600
C740
C380
0000
3F00
ENDCHAR
STARTCHAR uni1E36
ENCODING 7734
SWIDTH 565 0
DWIDTH 10 0
BBX 9 16 0 -3
BITMAP
3C00
1800
1800
1800
3000
3000
3000
3000
6000
6000
6080
6180
FF80
0000
1800
1800
ENDCHAR
STARTCHAR uni1E37
ENCODING 7735
SWIDTH 306 0
DWIDTH 6 0
BBX 5 17 0 -3
BITMAP
38
18
18
30
30
30
30
60
60
60
C0
C8
D0
E0
00
60
60
ENDCHAR
STARTCHAR uni1E38
ENCODING 7736
SWIDTH 565 0
DWIDTH 10 0
BBX 9 18 0 -3
BITMAP
7E00
0000
3C00
1800
1800
1800
3000
3000
3000
3000
6000
6000
6080
6180
FF80
0000
1800
1800
ENDCHAR
STARTCHAR uni1E39
ENCODING 7737
SWIDTH 306 0
DWIDTH 6 0
BBX 6 19 0 -3
BITMAP
FC
00
38
18
18
30
30
30
30
60
60
60
C0
C8
D0
E0
00
60
60
ENDCHAR
STARTCHAR uni1E3A
ENCODING 7738
SWIDTH 565 0
DWIDTH 10 0
BBX 9 15 0 -2
BITMAP
3C00
1800
1800
1800
3000
3000
3000
3000
6000
6000
6080
6180
FF80
0000
7E00
ENDCHAR
STARTCHAR uni1E3B
ENCODING 7739
SWIDTH 306 0
DWIDTH 6 0
BBX 6 16 -1 -2
BITMAP
1C
0C
0C
18
18
18
18
30
30
30
60
64
68
70
00
FC
ENDCHAR
STARTCHAR uni1E3C
ENCODING 7740
SWIDTH 565 0
DWIDTH 10 0
BBX 9 16 0 -3
BITMAP
3C00
1800
1800
1800
3000
3000
3000
3000
6000
6000
6080
6180
FF80
0000
1800
2C00
ENDCHAR
STARTCHAR uni1E3D
ENCODING 7741
SWIDTH 306 0
DWIDTH 6 0
BBX 5 17 0 -3
BITMAP
38
18
18
30
30
30
30
60
60
60
C0
C8
D0
E0
00
60
B0
ENDCHAR
STARTCHAR uni1E3E
ENCODING 7742
SWIDTH 920 0
DWIDTH 17 0
BBX 17 16 0 0
BITMAP
006000
00C000
000000
380780
180700
180B00
1C1B00
2C1600
2C2600
266600
264600
468C00
438C00
430C00
420C00
E01E00
ENDCHAR
STARTCHAR uni1E3F
ENCODING 7743
SWIDTH 912 0
DWIDTH 18 0
BBX 17 12 0 0
BITMAP
00C000
018000
000000
738E00
34D300
38E300
71C600
618600
618600
C30C80
C30D00
C30E00
ENDCHAR
STARTCHAR uni1E40
ENCODING 7744
SWIDTH 920 0
DWIDTH 17 0
BBX 17 16 0 0
BITMAP
006000
006000
000000
380780
180700
180B00
1C1B00
2C1600
2C2600
266600
264600
468C00
438C00
430C00
420C00
E01E00
ENDCHAR
STARTCHAR uni1E41
ENCODING 7745
SWIDTH 912 0
DWIDTH 18 0
BBX 17 12 0 0
BITMAP
018000
018000
000000
738E00
34D300
38E300
71C600
618600
618600
C30C80
C30D00
C30E00
ENDCHAR
STARTCHAR uni1E42
ENCODING 7746
SWIDTH 920 0
DWIDTH 17 0
BBX 17 16 0 -3
BITMAP
380780
180700
180B00
1C1B00
2C1600
2C2600
266600
264600
468C00
438C00
430C00
420C00
E01E00
000000
018000
018000
ENDCHAR
STARTCHAR uni1E43
ENCODING 7747
SWIDTH 912 0
DWIDTH 18 0
BBX 17 12 0 -3
BITMAP
738E00
34D300
38E300
71C600
618600
618600
C30C80
C30D00
C30E00
000000
018000
018000
ENDCHAR
STARTCHAR uni1E44
ENCODING 7748
SWIDTH 763 0
DWIDTH 14 0
BBX 14 16 0 0
BITMAP
0300
0300
0000
3C1C
1C08
1C08
1608
2610
2310
2310
2190
2190
40E0
40E0
4060
E060
ENDCHAR
STARTCHAR uni1E45
ENCODING 7749
SWIDTH 618 0
DWIDTH 12 0
BBX 11 12 0 0
BITMAP
0600
0600
0000
7380
34C0
38C0
7180
6180
6180
C320
C340
C380
ENDCHAR
STARTCHAR uni1E46
ENCODING 7750
SWIDTH 763 0
DWIDTH 14 0
BBX 14 16 0 -3
BITMAP
3C1C
1C08
1C08
1608
2610
2310
2310
2190
2190
40E0
40E0
4060
E060
0000
0300
0300
ENDCHAR
STARTCHAR uni1E47
ENCODING 7751
SWIDTH 618 0
DWIDTH 12 0
BBX 11 12 0 -3
BITMAP
7380
34C0
38C0
7180
6180
6180
C320
C340
C380
0000
0C00
0C00
ENDCHAR
STARTCHAR uni1E48
ENCODING 7752
SWIDTH 763 0
DWIDTH 14 0
BBX 14 15 0 -2
BITMAP
3C1C
1C08
1C08
1608
2610
2310
2310
2190
2190
40E0
40E0
4060
E060
0000
0FC0
ENDCHAR
STARTCHAR uni1E49
ENCODING 7753
SWIDTH 618 0
DWIDTH 12 0
BBX 11 11 0 -2
BITMAP
7380
34C0
38C0
7180
6180
6180
C320
C340
C380
0000
3F00
ENDCHAR
STARTCHAR uni1E4A
ENCODING 7754
SWIDTH 763 0
DWIDTH 14 0
BBX 14 16 0 -3
BITMAP
3C1C
1C08
1C08
1608
2610
2310
2310
2190
2190
40E0
40E0
4060
E060
0000
0300
0580
ENDCHAR
STARTCHAR uni1E4B
ENCODING 7755
SWIDTH 618 0
DWIDTH 12 0
BBX 11 12 0 -3
BITMAP
7380
34C0
38C0
7180
6180
6180
C320
C340
C380
0000
0C00
1600
ENDCHAR
STARTCHAR uni1E4C
ENCODING 7756
SWIDTH 753 0
DWIDTH 14 0
BBX 12 17 1 0
BITMAP
0180
0300
0000
0740
0980
0000
07C0
1860
3030
6030
6030
C030
C060
C060
C0C0
6180
3E00
ENDCHAR
STARTCHAR uni1E4D
ENCODING 7757
SWIDTH 537 0
DWIDTH 10 0
BBX 9 15 0 0
BITMAP
0600
0C00
0000
0E80
1300
0000
0F00
3180
6180
6180
C180
C300
C300
C600
7800
ENDCHAR
STARTCHAR uni1E4E
ENCODING 7758
SWIDTH 753 0
DWIDTH 14 0
BBX 12 17 1 0
BITMAP
0D80
0D80
0000
0740
0980
0000
07C0
1860
3030
6030
6030
C030
C060
C060
C0C0
6180
3E00
ENDCHAR
STARTCHAR uni1E4F
ENCODING 7759
SWIDTH 537 0
DWIDTH 10 0
BBX 9 15 0 0
BITMAP
1B00
1B00
0000
0E80
1300
0000
0F00
3180
6180
6180
C180
C300
C300
C600
7800
ENDCHAR
STARTCHAR uni1E50
ENCODING 7760
SWIDTH 753 0
DWIDTH 14 0
BBX 12 18 1 0
BITMAP
0600
0300
0000
0FC0
0000
07C0
1860
3030
6030
6030
C030
C030
C030
C060
C060
C0C0
6180
3E00
ENDCHAR
STARTCHAR uni1E51
ENCODING 7761
SWIDTH 537 0
DWIDTH 10 0
BBX 9 14 0 0
BITMAP
1800
0C00
0000
3F00
0000
0F00
3180
6180
6180
C180
C300
C300
C600
7800
ENDCHAR
STARTCHAR uni1E52
ENCODING 7762
SWIDTH 753 0
DWIDTH 14 0
BBX 12 18 1 0
BITMAP
0180
0300
0000
0FC0
0000
07C0
1860
3030
6030
6030
C030
C030
C030
C060
C060
C0C0
6180
3E00
ENDCHAR
STARTCHAR uni1E53
ENCODING 7763
SWIDTH 537 0
DWIDTH 10 0
BBX 9 14 0 0
BITMAP
0600
0C00
0000
3F00
0000
0F00
3180
6180
6180
C180
C300
C300
C600
7800
ENDCHAR
STARTCHAR uni1E54
ENCODING 7764
SWIDTH 614 0
DWIDTH 11 0
BBX 11 16 0 0
BITMAP
0300
0600
0000
3F80
18C0
1860
1860
3060
30C0
3180
3E00
6000
6000
6000
6000
F000
ENDCHAR
STARTCHAR uni1E55
ENCODING 7765
SWIDTH 590 0
DWIDTH 10 0
BBX 10 16 -1 -4
BITMAP
0300
0600
0000
3B80
1CC0
18C0
30C0
30C0
3180
6180
7300
6C00
6000
C000
C000
C000
ENDCHAR
STARTCHAR uni1E56
ENCODING 7766
SWIDTH 614 0
DWIDTH 11 0
BBX 11 16 0 0
BITMAP
0600
0600
0000
3F80
18C0
1860
1860
3060
30C0
3180
3E00
6000
6000
6000
6000
F000
ENDCHAR
STARTCHAR uni1E57
ENCODING 7767
SWIDTH 590 0
DWIDTH 10 0
BBX 10 16 -1 -4
BITMAP
0600
0600
0000
3B80
1CC0
18C0
30C0
30C0
3180
6180
7300
6C00
6000
C000
C000
C000
ENDCHAR
STARTCHAR uni1E58
ENCODING 7768
SWIDTH 640 0
DWIDTH 12 0
BBX 11 16 0 0
BITMAP
0600
0600
0000
3F80
18C0
1860
1860
3060
30C0
3F00
3300
6180
6180
6180
6180
F0C0
ENDCHAR
STARTCHAR uni1E59
ENCODING 7769
SWIDTH 402 0
DWIDTH 8 0
BBX 8 12 0 0
BITMAP
18
18
00
73
37
38
70
60
60
C0
C0
C0
ENDCHAR
STARTCHAR uni1E5A
ENCODING 7770
SWIDTH 640 0
DWIDTH 12 0
BBX 11 16 0 -3
BITMAP
3F80
18C0
1860
1860
3060
30C0
3F00
3300
6180
6180
6180
6180
F0C0
0000
0C00
0C00
ENDCHAR
STARTCHAR uni1E5B
ENCODING 7771
SWIDTH 402 0
DWIDTH 8 0
BBX 8 12 0 -3
BITMAP
73
37
38
70
60
60
C0
C0
C0
00
60
60
ENDCHAR
STARTCHAR uni1E5C
ENCODING 7772
SWIDTH 640 0
DWIDTH 12 0
BBX 11 18 0 -3
BITMAP
1F80
0000
3F80
18C0
1860
1860
3060
30C0
3F00
3300
6180
6180
6180
6180
F0C0
0000
0C00
0C00
ENDCHAR
STARTCHAR uni1E5D
ENCODING 7773
SWIDTH 402 0
DWIDTH 8 0
BBX 8 14 0 -3
BITMAP
7E
00
73
37
38
70
60
60
C0
C0
C0
00
60
60
ENDCHAR
STARTCHAR uni1E5E
ENCODING 7774
SWIDTH 640 0
DWIDTH 12 0
BBX 11 15 0 -2
BITMAP
3F80
18C0
1860
1860
3060
30C0
3F00
3300
6180
6180
6180
6180
F0C0
0000
3F00
ENDCHAR
STARTCHAR uni1E5F
ENCODING 7775
SWIDTH 402 0
DWIDTH 8 0
BBX 9 11 -1 -2
BITMAP
3980
1B80
1C00
3800
3000
3000
6000
6000
6000
0000
FC00
ENDCHAR
STARTCHAR uni1E60
ENCODING 7776
SWIDTH 533 0
DWIDTH 10 0
BBX 10 16 0 0
BITMAP
0600
0600
0000
0780
18C0
3040
3000
3800
1C00
0700
0380
0180
8180
C180
E300
3C00
ENDCHAR
STARTCHAR uni1E61
ENCODING 7777
SWIDTH 389 0
DWIDTH 8 0
BBX 7 12 0 0
BITMAP
18
18
00
1C
26
60
70
38
1C
0C
C8
70
ENDCHAR
STARTCHAR uni1E62
ENCODING 7778
SWIDTH 533 0
DWIDTH 10 0
BBX 10 16 0 -3
BITMAP
0780
18C0
3040
3000
3800
1C00
0700
0380
0180
8180
C180
E300
3C00
0000
0C00
0C00
ENDCHAR
STARTCHAR uni1E63
ENCODING 7779
SWIDTH 389 0
DWIDTH 8 0
BBX 7 12 0 -3
BITMAP
1C
26
60
70
38
1C
0C
C8
70
00
30
30
ENDCHAR
STARTCHAR uni1E64
ENCODING 7780
SWIDTH 533 0
DWIDTH 10 0
BBX 10 19 0 0
BITMAP
0600
0600
0000
0600
0C00
0000
0780
18C0
3040
3000
3800
1C00
0700
0380
0180
8180
C180
E300
3C00
ENDCHAR
STARTCHAR uni1E65
ENCODING 7781
SWIDTH 389 0
DWIDTH 8 0
BBX 7 15 0 0
BITMAP
18
18
00
0C
18
00
1C
26
60
70
38
1C
0C
C8
70
ENDCHAR
STARTCHAR uni1E66
ENCODING 7782
SWIDTH 533 0
DWIDTH 10 0
BBX 10 17 0 0
BITMAP
0600
0600
0000
0D00
0600
0000
0F80
18C0
3040
3800
1C00
0F00
0380
8180
C180
E300
3E00
ENDCHAR
STARTCHAR uni1E67
ENCODING 7783
SWIDTH 389 0
DWIDTH 8 0
BBX 7 15 0 0
BITMAP
18
18
00
34
18
00
1C
26
60
70
38
1C
0C
C8
70
ENDCHAR
STARTCHAR uni1E68
ENCODING 7784
SWIDTH 533 0
DWIDTH 10 0
BBX 10 19 0 -3
BITMAP
0C00
0C00
0000
0780
18C0
3040
3000
3800
1C00
0700
0380
0180
8180
C180
E300
3C00
0000
0C00
0C00
ENDCHAR
STARTCHAR uni1E69
ENCODING 7785
SWIDTH 389 0
DWIDTH 8 0
BBX 7 15 0 -3
BITMAP
18
18
00
1C
26
60
70
38
1C
0C
C8
70
00
30
30
ENDCHAR
STARTCHAR uni1E6A
ENCODING 7786
SWIDTH 606 0
DWIDTH 13 0
BBX 12 16 1 0
BITMAP
0600
0600
0000
FFF0
C630
8610
0600
0C00
0C00
0C00
0C00
1800
1800
1800
1800
3C00
ENDCHAR
STARTCHAR uni1E6B
ENCODING 7787
SWIDTH 341 0
DWIDTH 6 0
BBX 6 14 0 0
BITMAP
30
30
00
10
30
FC
30
60
60
60
C0
C8
D0
E0
ENDCHAR
STARTCHAR uni1E6C
ENCODING 7788
SWIDTH 606 0
DWIDTH 13 0
BBX 12 16 1 -3
BITMAP
FFF0
C630
8610
0600
0C00
0C00
0C00
0C00
1800
1800
1800
1800
3C00
0000
0C00
0C00
ENDCHAR
STARTCHAR uni1E6D
ENCODING 7789
SWIDTH 341 0
DWIDTH 6 0
BBX 6 14 0 -3
BITMAP
10
30
FC
30
60
60
60
C0
C8
D0
E0
00
60
60
ENDCHAR
STARTCHAR uni1E6E
ENCODING 7790
SWIDTH 606 0
DWIDTH 13 0
BBX 12 15 1 -2
BITMAP
FFF0
C630
8610
0600
0C00
0C00
0C00
0C00
1800
1800
1800
1800
3C00
0000
3F00
ENDCHAR
STARTCHAR uni1E6F
ENCODING 7791
SWIDTH 341 0
DWIDTH 6 0
BBX 7 13 -1 -2
BITMAP
08
18
7E
18
30
30
30
60
64
68
70
00
FC
ENDCHAR
STARTCHAR uni1E70
ENCODING 7792
SWIDTH 606 0
DWIDTH 13 0
BBX 12 16 1 -3
BITMAP
FFF0
C630
8610
0600
0C00
0C00
0C00
0C00
1800
1800
1800
1800
3C00
0000
0C00
1600
ENDCHAR
STARTCHAR uni1E71
ENCODING 7793
SWIDTH 341 0
DWIDTH 6 0
BBX 6 14 0 -3
BITMAP
10
30
FC
30
60
60
60
C0
C8
D0
E0
00
60
B0
ENDCHAR
STARTCHAR uni1E72
ENCODING 7794
SWIDTH 794 0
DWIDTH 14 0
BBX 13 16 1 -3
BITMAP
7878
3030
3030
3030
6060
6060
6060
6060
C0C0
C0C0
C0C0
6180
3E00
0000
1B00
1B00
ENDCHAR
STARTCHAR uni1E73
ENCODING 7795
SWIDTH 618 0
DWIDTH 12 0
BBX 11 12 0 -3
BITMAP
70C0
30C0
30C0
6180
6180
6380
C720
CB40
7380
0000
1B00
1B00
ENDCHAR
STARTCHAR uni1E74
ENCODING 7796
SWIDTH 794 0
DWIDTH 14 0
BBX 13 16 1 -3
BITMAP
7878
3030
3030
3030
6060
6060
6060
6060
C0C0
C0C0
C0C0
6180
3E00
0000
1D00
2600
ENDCHAR
STARTCHAR uni1E75
ENCODING 7797
SWIDTH 618 0
DWIDTH 12 0
BBX 11 12 0 -3
BITMAP
70C0
30C0
30C0
6180
6180
6380
C720
CB40
7380
0000
1D00
2600
ENDCHAR
STARTCHAR uni1E76
ENCODING 7798
SWIDTH 794 0
DWIDTH 14 0
BBX 13 16 1 -3
BITMAP
7878
3030
3030
3030
6060
6060
6060
6060
C0C0
C0C0
C0C0
6180
3E00
0000
0C00
1600
ENDCHAR
STARTCHAR uni1E77
ENCODING 7799
SWIDTH 618 0
DWIDTH 12 0
BBX 11 12 0 -3
BITMAP
70C0
30C0
30C0
6180
6180
6380
C720
CB40
7380
0000
0C00
1600
ENDCHAR
STARTCHAR uni1E78
ENCODING 7800
SWIDTH 794 0
DWIDTH 14 0
BBX 13 19 1 0
BITMAP
0180
0300
0000
0740
0980
0000
7878
3030
3030
3030
6060
6060
6060
6060
C0C0
C0C0
C0C0
6180
3E00
ENDCHAR
STARTCHAR uni1E79
ENCODING 7801
SWIDTH 618 0
DWIDTH 12 0
BBX 11 15 0 0
BITMAP
0600
0C00
0000
0E80
1300
0000
70C0
30C0
30C0
6180
6180
6380
C720
CB40
7380
ENDCHAR
STARTCHAR uni1E7A
ENCODING 7802
SWIDTH 794 0
DWIDTH 14 0
BBX 13 18 1 0
BITMAP
0D80
0D80
0000
0FC0
0000
7878
3030
3030
3030
6060
6060
6060
6060
C0C0
C0C0
C0C0
6180
3E00
ENDCHAR
STARTCHAR uni1E7B
ENCODING 7803
SWIDTH 618 0
DWIDTH 12 0
BBX 11 14 0 0
BITMAP
1B00
1B00
0000
1F80
0000
70C0
30C0
30C0
6180
6180
6380
C720
CB40
7380
ENDCHAR
STARTCHAR uni1E7C
ENCODING 7804
SWIDTH 637 0
DWIDTH 12 0
BBX 12 16 1 0
BITMAP
1D00
2600
0000
F070
6020
6040
6040
3080
3080
3100
3100
3200
1A00
1C00
1C00
1800
ENDCHAR
STARTCHAR uni1E7D
ENCODING 7805
SWIDTH 510 0
DWIDTH 10 0
BBX 8 12 1 0
BITMAP
3A
4C
00
E3
63
63
63
C2
C6
C4
C8
70
ENDCHAR
STARTCHAR uni1E7E
ENCODING 7806
SWIDTH 637 0
DWIDTH 12 0
BBX 12 16 1 -3
BITMAP
F070
6020
6040
6040
3080
3080
3100
3100
3200
1A00
1C00
1C00
1800
0000
0C00
0C00
ENDCHAR
STARTCHAR uni1E7F
ENCODING 7807
SWIDTH 510 0
DWIDTH 10 0
BBX 8 12 1 -3
BITMAP
E3
63
63
63
C2
C6
C4
C8
70
00
30
30
ENDCHAR
STARTCHAR Wgrave
ENCODING 7808
SWIDTH 946 0
DWIDTH 18 0
BBX 18 16 1 0
BITMAP
018000
00C000
000000
F061C0
606080
60E080
60E100
616100
626200
323200
343400
343400
383800
383800
303000
303000
ENDCHAR
STARTCHAR wgrave
ENCODING 7809
SWIDTH 785 0
DWIDTH 15 0
BBX 13 12 1 0
BITMAP
0600
0300
0000
E318
6318
6318
6318
C610
C630
C620
CE40
7380
ENDCHAR
STARTCHAR Wacute
ENCODING 7810
SWIDTH 946 0
DWIDTH 18 0
BBX 18 16 1 0
BITMAP
00C000
018000
000000
F061C0
606080
60E080
60E100
616100
626200
323200
343400
343400
383800
383800
303000
303000
ENDCHAR
STARTCHAR wacute
ENCODING 7811
SWIDTH 785 0
DWIDTH 15 0
BBX 13 12 1 0
BITMAP
0300
0600
0000
E318
6318
6318
6318
C610
C630
C620
CE40
7380
ENDCHAR
STARTCHAR Wdieresis
ENCODING 7812
SWIDTH 946 0
DWIDTH 18 0
BBX 18 16 1 0
BITMAP
036000
036000
000000
F061C0
606080
60E080
60E100
616100
626200
323200
343400
343400
383800
383800
303000
303000
ENDCHAR
STARTCHAR wdieresis
ENCODING 7813
SWIDTH 785 0
DWIDTH 15 0
BBX 13 12 1 0
BITMAP
0D80
0D80
0000
E318
6318
6318
6318
C610
C630
C620
CE40
7380
ENDCHAR
STARTCHAR uni1E86
ENCODING 7814
SWIDTH 946 0
DWIDTH 18 0
BBX 18 16 1 0
BITMAP
00C000
00C000
000000
F061C0
606080
60E080
60E100
616100
626200
323200
343400
343400
383800
383800
303000
303000
ENDCHAR
STARTCHAR uni1E87
ENCODING 7815
SWIDTH 785 0
DWIDTH 15 0
BBX 13 12 1 0
BITMAP
0300
0300
0000
E318
6318
6318
6318
C610
C630
C620
CE40
7380
ENDCHAR
STARTCHAR uni1E88
ENCODING 7816
SWIDTH 946 0
DWIDTH 18 0
BBX 18 16 1 -3
BITMAP
F061C0
606080
60E080
60E100
616100
626200
323200
343400
343400
383800
383800
303000
303000
000000
018000
018000
ENDCHAR
STARTCHAR uni1E89
ENCODING 7817
SWIDTH 785 0
DWIDTH 15 0
BBX 13 12 1 -3
BITMAP
E318
6318
6318
6318
C610
C630
C620
CE40
7380
0000
0C00
0C00
ENDCHAR
STARTCHAR uni1E8A
ENCODING 7818
SWIDTH 632 0
DWIDTH 12 0
BBX 12 16 0 0
BITMAP
0600
0600
0000
3C70
1820
1840
0C80
0D00
0600
0600
0600
0B00
1300
2180
4180
E3C0
ENDCHAR
STARTCHAR uni1E8B
ENCODING 7819
SWIDTH 516 0
DWIDTH 9 0
BBX 10 12 -1 0
BITMAP
0C00
0C00
0000
38C0
1980
1A00
0C00
0C00
0C00
1640
6680
C700
ENDCHAR
STARTCHAR uni1E8C
ENCODING 7820
SWIDTH 632 0
DWIDTH 12 0
BBX 12 16 0 0
BITMAP
0D80
0D80
0000
3C70
1820
1840
0C80
0D00
0600
0600
0600
0B00
1300
2180
4180
E3C0
ENDCHAR
STARTCHAR uni1E8D
ENCODING 7821
SWIDTH 516 0
DWIDTH 9 0
BBX 10 12 -1 0
BITMAP
1B00
1B00
0000
38C0
1980
1A00
0C00
0C00
0C00
1640
6680
C700
ENDCHAR
STARTCHAR uni1E8E
ENCODING 7822
SWIDTH 591 0
DWIDTH 11 0
BBX 11 16 1 0
BITMAP
0C00
0C00
0000
F0E0
6040
6080
3100
3200
3400
1800
1800
1800
3000
3000
3000
7800
ENDCHAR
STARTCHAR uni1E8F
ENCODING 7823
SWIDTH 468 0
DWIDTH 8 0
BBX 10 16 -2 -4
BITMAP
0600
0600
0000
38C0
18C0
1880
1900
0D00
0E00
0E00
0C00
0C00
0800
1800
D000
6000
ENDCHAR
STARTCHAR uni1E90
ENCODING 7824
SWIDTH 622 0
DWIDTH 11 0
BBX 11 16 0 0
BITMAP
0600
0B00
0000
3FE0
30E0
21C0
0180
0300
0600
0E00
0C00
1800
3000
7040
E0C0
FFC0
ENDCHAR
STARTCHAR uni1E91
ENCODING 7825
SWIDTH 468 0
DWIDTH 10 0
BBX 9 12 0 0
BITMAP
0C00
1600
0000
3F80
3F00
4200
0400
0800
1000
3880
7D00
8E00
ENDCHAR
STARTCHAR uni1E92
ENCODING 7826
SWIDTH 622 0
DWIDTH 11 0
BBX 11 16 0 -3
BITMAP
3FE0
30E0
21C0
0180
0300
0600
0E00
0C00
1800
3000
7040
E0C0
FFC0
0000
0C00
0C00
ENDCHAR
STARTCHAR uni1E93
ENCODING 7827
SWIDTH 468 0
DWIDTH 10 0
BBX 9 12 0 -3
BITMAP
3F80
3F00
4200
0400
0800
1000
3880
7D00
8E00
0000
1800
1800
ENDCHAR
STARTCHAR uni1E94
ENCODING 7828
SWIDTH 622 0
DWIDTH 11 0
BBX 11 15 0 -2
BITMAP
3FE0
30E0
21C0
0180
0300
0600
0E00
0C00
1800
3000
7040
E0C0
FFC0
0000
3F00
ENDCHAR
STARTCHAR uni1E95
ENCODING 7829
SWIDTH 468 0
DWIDTH 10 0
BBX 9 11 0 -2
BITMAP
3F80
3F00
4200
0400
0800
1000
3880
7D00
8E00
0000
7E00
ENDCHAR
STARTCHAR uni1E96
ENCODING 7830
SWIDTH 607 0
DWIDTH 12 0
BBX 11 16 0 -2
BITMAP
3800
1800
1800
1800
3000
3380
34C0
68C0
7180
6180
6180
C320
C340
C380
0000
3F00
ENDCHAR
STARTCHAR uni1E97
ENCODING 7831
SWIDTH 341 0
DWIDTH 6 0
BBX 6 14 0 0
BITMAP
6C
6C
00
10
30
FC
30
60
60
60
C0
C8
D0
E0
ENDCHAR
STARTCHAR uni1E98
ENCODING 7832
SWIDTH 785 0
DWIDTH 15 0
BBX 13 13 1 0
BITMAP
0300
0480
0300
0000
E318
6318
6318
6318
C610
C630
C620
CE40
7380
ENDCHAR
STARTCHAR uni1E99
ENCODING 7833
SWIDTH 468 0
DWIDTH 8 0
BBX 10 17 -2 -4
BITMAP
0600
0900
0600
0000
38C0
18C0
1880
1900
0D00
0E00
0E00
0C00
0C00
0800
1800
D000
6000
ENDCHAR
STARTCHAR uni1EA0
ENCODING 7840
SWIDTH 624 0
DWIDTH 12 0
BBX 12 16 -1 -3
BITMAP
0180
0380
0380
0580
04C0
08C0
08C0
1FC0
10C0
2060
2060
4060
E0F0
0000
0300
0300
ENDCHAR
STARTCHAR uni1EA1
ENCODING 7841
SWIDTH 561 0
DWIDTH 11 0
BBX 10 12 0 -3
BITMAP
0F80
3180
6180
6300
C300
C300
C640
CE80
7300
0000
0C00
0C00
ENDCHAR
STARTCHAR uni1EA4
ENCODING 7844
SWIDTH 624 0
DWIDTH 12 0
BBX 12 17 -1 0
BITMAP
0180
0300
0000
0180
02C0
0000
0180
0380
0380
04C0
08C0
08C0
1FC0
2060
2060
4060
E0F0
ENDCHAR
STARTCHAR uni1EA5
ENCODING 7845
SWIDTH 561 0
DWIDTH 11 0
BBX 10 15 0 0
BITMAP
0300
0600
0000
0600
0B00
0000
0F80
3180
6180
6300
C300
C300
C640
CE80
7300
ENDCHAR
STARTCHAR uni1EA6
ENCODING 7846
SWIDTH 624 0
DWIDTH 12 0
BBX 12 17 -1 0
BITMAP
0300
0180
0000
0180
02C0
0000
0180
0380
0380
04C0
08C0
08C0
1FC0
2060
2060
4060
E0F0
ENDCHAR
STARTCHAR uni1EA7
ENCODING 7847
SWIDTH 561 0
DWIDTH 11 0
BBX 10 15 0 0
BITMAP
0C00
0600
0000
0600
0B00
0000
0F80
3180
6180
6300
C300
C300
C640
CE80
7300
ENDCHAR
STARTCHAR uni1EAA
ENCODING 7850
SWIDTH 624 0
DWIDTH 12 0
BBX 12 17 -1 0
BITMAP
0740
0980
0000
0180
02C0
0000
0180
0380
0380
04C0
08C0
08C0
1FC0
2060
2060
4060
E0F0
ENDCHAR
STARTCHAR uni1EAB
ENCODING 7851
SWIDTH 561 0
DWIDTH 11 0
BBX 10 15 0 0
BITMAP
0E80
1300
0000
0600
0B00
0000
0F80
3180
6180
6300
C300
C300
C640
CE80
7300
ENDCHAR
STARTCHAR uni1EAC
ENCODING 7852
SWIDTH 624 0
DWIDTH 12 0
BBX 12 19 -1 -3
BITMAP
0300
0580
0000
0180
0380
0380
0580
04C0
08C0
08C0
1FC0
10C0
2060
2060
4060
E0F0
0000
0300
0300
ENDCHAR
STARTCHAR uni1EAD
ENCODING 7853
SWIDTH 561 0
DWIDTH 11 0
BBX 10 15 0 -3
BITMAP
0C00
1600
0000
0F80
3180
6180
6300
C300
C300
C640
CE80
7300
0000
0C00
0C00
ENDCHAR
STARTCHAR uni1EAE
ENCODING 7854
SWIDTH 624 0
DWIDTH 12 0
BBX 12 19 -1 0
BITMAP
0180
0300
0000
0440
0380
0000
0180
0380
0380
0580
04C0
08C0
08C0
1FC0
10C0
2060
2060
4060
E0F0
ENDCHAR
STARTCHAR uni1EAF
ENCODING 7855
SWIDTH 561 0
DWIDTH 11 0
BBX 10 15 0 0
BITMAP
0300
0600
0000
1100
0E00
0000
0F80
3180
6180
6300
C300
C300
C640
CE80
7300
ENDCHAR
STARTCHAR uni1EB0
ENCODING 7856
SWIDTH 624 0
DWIDTH 12 0
BBX 12 19 -1 0
BITMAP
0600
0300
0000
0440
0380
0000
0180
0380
0380
0580
04C0
08C0
08C0
1FC0
10C0
2060
2060
4060
E0F0
ENDCHAR
STARTCHAR uni1EB1
ENCODING 7857
SWIDTH 561 0
DWIDTH 11 0
BBX 10 15 0 0
BITMAP
0C00
0600
0000
1100
0E00
0000
0F80
3180
6180
6300
C300
C300
C640
CE80
7300
ENDCHAR
STARTCHAR uni1EB4
ENCODING 7860
SWIDTH 624 0
DWIDTH 12 0
BBX 12 19 -1 0
BITMAP
0740
0980
0000
0440
0380
0000
0180
0380
0380
0580
04C0
08C0
08C0
1FC0
10C0
2060
2060
4060
E0F0
ENDCHAR
STARTCHAR uni1EB5
ENCODING 7861
SWIDTH 561 0
DWIDTH 11 0
BBX 10 15 0 0
BITMAP
0E80
1300
0000
1100
0E00
0000
0F80
3180
6180
6300
C300
C300
C640
CE80
7300
ENDCHAR
STARTCHAR uni1EB6
ENCODING 7862
SWIDTH 624 0
DWIDTH 12 0
BBX 12 19 -1 -3
BITMAP
0440
0380
0000
0180
0380
0380
0580
04C0
08C0
08C0
1FC0
10C0
2060
2060
4060
E0F0
0000
0300
0300
ENDCHAR
STARTCHAR uni1EB7
ENCODING 7863
SWIDTH 561 0
DWIDTH 11 0
BBX 10 15 0 -3
BITMAP
1100
0E00
0000
0F80
3180
6180
6300
C300
C300
C640
CE80
7300
0000
0C00
0C00
ENDCHAR
STARTCHAR uni1EB8
ENCODING 7864
SWIDTH 596 0
DWIDTH 11 0
BBX 11 16 0 -3
BITMAP
3FE0
1860
1820
1800
3000
3080
3F80
3080
6000
6000
6080
6180
FF80
0000
0C00
0C00
ENDCHAR
STARTCHAR uni1EB9
ENCODING 7865
SWIDTH 453 0
DWIDTH 9 0
BBX 8 12 0 -3
BITMAP
0E
33
63
66
CC
F0
C2
C4
78
00
30
30
ENDCHAR
STARTCHAR uni1EBC
ENCODING 7868
SWIDTH 596 0
DWIDTH 11 0
BBX 11 16 0 0
BITMAP
0E80
1300
0000
3FE0
1860
1820
1800
3000
3080
3F80
3080
6000
6000
6080
6180
FF80
ENDCHAR
STARTCHAR uni1EBD
ENCODING 7869
SWIDTH 453 0
DWIDTH 9 0
BBX 8 12 0 0
BITMAP
1D
26
00
0E
33
63
66
CC
F0
C2
C4
78
ENDCHAR
STARTCHAR uni1EBE
ENCODING 7870
SWIDTH 596 0
DWIDTH 11 0
BBX 11 17 0 0
BITMAP
0300
0600
0000
0300
0580
0000
3FE0
1860
1820
3000
3080
3F80
3080
6000
6080
6180
FF80
ENDCHAR
STARTCHAR uni1EBF
ENCODING 7871
SWIDTH 453 0
DWIDTH 9 0
BBX 8 15 0 0
BITMAP
06
0C
00
0C
16
00
0E
33
63
66
CC
F0
C2
C4
78
ENDCHAR
STARTCHAR uni1EC0
ENCODING 7872
SWIDTH 596 0
DWIDTH 11 0
BBX 11 17 0 0
BITMAP
0C00
0600
0000
0300
0580
0000
3FE0
1860
1820
3000
3080
3F80
3080
6000
6080
6180
FF80
ENDCHAR
STARTCHAR uni1EC1
ENCODING 7873
SWIDTH 453 0
DWIDTH 9 0
BBX 8 15 0 0
BITMAP
18
0C
00
0C
16
00
0E
33
63
66
CC
F0
C2
C4
78
ENDCHAR
STARTCHAR uni1EC4
ENCODING 7876
SWIDTH 596 0
DWIDTH 11 0
BBX 11 17 0 0
BITMAP
0E80
1300
0000
0300
0580
0000
3FE0
1860
1820
3000
3080
3F80
3080
6000
6080
6180
FF80
ENDCHAR
STARTCHAR uni1EC5
ENCODING 7877
SWIDTH 453 0
DWIDTH 9 0
BBX 8 15 0 0
BITMAP
1D
26
00
0C
16
00
0E
33
63
66
CC
F0
C2
C4
78
ENDCHAR
STARTCHAR uni1EC6
ENCODING 7878
SWIDTH 596 0
DWIDTH 11 0
BBX 11 19 0 -3
BITMAP
0600
0B00
0000
3FE0
1860
1820
1800
3000
3080
3F80
3080
6000
6000
6080
6180
FF80
0000
0C00
0C00
ENDCHAR
STARTCHAR uni1EC7
ENCODING 7879
SWIDTH 453 0
DWIDTH 9 0
BBX 8 15 0 -3
BITMAP
18
2C
00
0E
33
63
66
CC
F0
C2
C4
78
00
30
30
ENDCHAR
STARTCHAR uni1ECA
ENCODING 7882
SWIDTH 345 0
DWIDTH 6 0
BBX 6 16 0 -3
BITMAP
3C
18
18
18
30
30
30
30
60
60
60
60
F0
00
60
60
ENDCHAR
STARTCHAR uni1ECB
ENCODING 7883
SWIDTH 317 0
DWIDTH 6 0
BBX 5 16 0 -3
BITMAP
18
18
00
00
70
30
30
60
60
60
C8
D0
E0
00
60
60
ENDCHAR
STARTCHAR uni1ECC
ENCODING 7884
SWIDTH 753 0
DWIDTH 14 0
BBX 12 16 1 -3
BITMAP
07C0
1860
3030
6030
6030
C030
C030
C030
C060
C060
C0C0
6180
3E00
0000
0C00
0C00
ENDCHAR
STARTCHAR uni1ECD
ENCODING 7885
SWIDTH 537 0
DWIDTH 10 0
BBX 9 12 0 -3
BITMAP
0F00
3180
6180
6180
C180
C300
C300
C600
7800
0000
1800
1800
ENDCHAR
STARTCHAR uni1ED0
ENCODING 7888
SWIDTH 753 0
DWIDTH 14 0
BBX 12 17 1 0
BITMAP
0180
0300
0000
0300
0580
0000
07C0
1860
3030
6030
6030
C030
C060
C060
C0C0
6180
3E00
ENDCHAR
STARTCHAR uni1ED1
ENCODING 7889
SWIDTH 537 0
DWIDTH 10 0
BBX 9 15 0 0
BITMAP
0600
0C00
0000
0600
0B00
0000
0F00
3180
6180
6180
C180
C300
C300
C600
7800
ENDCHAR
STARTCHAR uni1ED2
ENCODING 7890
SWIDTH 753 0
DWIDTH 14 0
BBX 12 17 1 0
BITMAP
0600
0300
0000
0300
0580
0000
07C0
1860
3030
6030
6030
C030
C060
C060
C0C0
6180
3E00
ENDCHAR
STARTCHAR uni1ED3
ENCODING 7891
SWIDTH 537 0
DWIDTH 10 0
BBX 9 15 0 0
BITMAP
0C00
0600
0000
0600
0B00
0000
0F00
3180
6180
6180
C180
C300
C300
C600
7800
ENDCHAR
STARTCHAR uni1ED6
ENCODING 7894
SWIDTH 753 0
DWIDTH 14 0
BBX 12 17 1 0
BITMAP
0740
0980
0000
0300
0580
0000
07C0
1860
3030
6030
6030
C030
C060
C060
C0C0
6180
3E00
ENDCHAR
STARTCHAR uni1ED7
ENCODING 7895
SWIDTH 537 0
DWIDTH 10 0
BBX 9 15 0 0
BITMAP
0E80
1300
0000
0600
0B00
0000
0F00
3180
6180
6180
C180
C300
C300
C600
7800
ENDCHAR
STARTCHAR uni1ED8
ENCODING 7896
SWIDTH 753 0
DWIDTH 14 0
BBX 12 19 1 -3
BITMAP
0300
0580
0000
07C0
1860
3030
6030
6030
C030
C030
C030
C060
C060
C0C0
6180
3E00
0000
0C00
0C00
ENDCHAR
STARTCHAR uni1ED9
ENCODING 7897
SWIDTH 537 0
DWIDTH 10 0
BBX 9 15 0 -3
BITMAP
0C00
1600
0000
0F00
3180
6180
6180
C180
C300
C300
C600
7800
0000
1800
1800
ENDCHAR
STARTCHAR uni1EDA
ENCODING 7898
SWIDTH 753 0
DWIDTH 14 0
BBX 14 16 1 0
BITMAP
00C0
0180
0000
07CC
186C
3038
6038
6030
C030
C030
C030
C060
C060
C0C0
6180
3E00
ENDCHAR
STARTCHAR uni1EDB
ENCODING 7899
SWIDTH 537 0
DWIDTH 10 0
BBX 11 12 0 0
BITMAP
0300
0600
0000
0F60
31E0
61C0
61C0
C180
C300
C300
C600
7800
ENDCHAR
STARTCHAR uni1EDC
ENCODING 7900
SWIDTH 753 0
DWIDTH 14 0
BBX 14 16 1 0
BITMAP
0300
0180
0000
07CC
186C
3038
6038
6030
C030
C030
C030
C060
C060
C0C0
6180
3E00
ENDCHAR
STARTCHAR uni1EDD
ENCODING 7901
SWIDTH 537 0
DWIDTH 10 0
BBX 11 12 0 0
BITMAP
0600
0300
0000
0F60
31E0
61C0
61C0
C180
C300
C300
C600
7800
ENDCHAR
STARTCHAR uni1EE0
ENCODING 7904
SWIDTH 753 0
DWIDTH 14 0
BBX 14 16 1 0
BITMAP
03A0
04C0
0000
07CC
186C
3038
6038
6030
C030
C030
C030
C060
C060
C0C0
6180
3E00
ENDCHAR
STARTCHAR uni1EE1
ENCODING 7905
SWIDTH 537 0
DWIDTH 10 0
BBX 11 12 0 0
BITMAP
0E80
1300
0000
0F60
31E0
61C0
61C0
C180
C300
C300
C600
7800
ENDCHAR
STARTCHAR uni1EE2
ENCODING 7906
SWIDTH 753 0
DWIDTH 14 0
BBX 14 16 1 -3
BITMAP
07CC
186C
3038
6038
6030
C030
C030
C030
C060
C060
C0C0
6180
3E00
0000
0600
0600
ENDCHAR
STARTCHAR uni1EE3
ENCODING 7907
SWIDTH 537 0
DWIDTH 10 0
BBX 11 12 0 -3
BITMAP
0F60
31E0
61C0
61C0
C180
C300
C300
C600
7800
0000
1800
1800
ENDCHAR
STARTCHAR uni1EE4
ENCODING 7908
SWIDTH 794 0
DWIDTH 14 0
BBX 13 16 1 -3
BITMAP
7878
3030
3030
3030
6060
6060
6060
6060
C0C0
C0C0
C0C0
6180
3E00
0000
0C00
0C00
ENDCHAR
STARTCHAR uni1EE5
ENCODING 7909
SWIDTH 618 0
DWIDTH 12 0
BBX 11 12 0 -3
BITMAP
70C0
30C0
30C0
6180
6180
6380
C720
CB40
7380
0000
0C00
0C00
ENDCHAR
STARTCHAR uni1EE8
ENCODING 7912
SWIDTH 794 0
DWIDTH 14 0
BBX 15 16 1 0
BITMAP
00C0
0180
0000
787E
3036
3034
3034
6068
6060
6060
6060
C0C0
C0C0
C0C0
6180
3E00
ENDCHAR
STARTCHAR uni1EE9
ENCODING 7913
SWIDTH 618 0
DWIDTH 12 0
BBX 13 12 0 0
BITMAP
0180
0300
0000
70D8
30D8
30D0
6190
61A0
6380
C720
CB40
7380
ENDCHAR
STARTCHAR uni1EEA
ENCODING 7914
SWIDTH 794 0
DWIDTH 14 0
BBX 15 16 1 0
BITMAP
0300
0180
0000
787E
3036
3034
3034
6068
6060
6060
6060
C0C0
C0C0
C0C0
6180
3E00
ENDCHAR
STARTCHAR uni1EEB
ENCODING 7915
SWIDTH 618 0
DWIDTH 12 0
BBX 13 12 0 0
BITMAP
0600
0300
0000
70D8
30D8
30D0
6190
61A0
6380
C720
CB40
7380
ENDCHAR
STARTCHAR uni1EEE
ENCODING 7918
SWIDTH 794 0
DWIDTH 14 0
BBX 15 16 1 0
BITMAP
03A0
04C0
0000
787E
3036
3034
3034
6068
6060
6060
6060
C0C0
C0C0
C0C0
6180
3E00
ENDCHAR
STARTCHAR uni1EEF
ENCODING 7919
SWIDTH 618 0
DWIDTH 12 0
BBX 13 12 0 0
BITMAP
0740
0980
0000
70D8
30D8
30D0
6190
61A0
6380
C720
CB40
7380
ENDCHAR
STARTCHAR uni1EF0
ENCODING 7920
SWIDTH 794 0
DWIDTH 14 0
BBX 15 16 1 -3
BITMAP
787E
3036
3034
3034
6068
6060
6060
6060
C0C0
C0C0
C0C0
6180
3E00
0000
0600
0600
ENDCHAR
STARTCHAR uni1EF1
ENCODING 7921
SWIDTH 618 0
DWIDTH 12 0
BBX 13 12 0 -3
BITMAP
70D8
30D8
30D0
6190
61A0
6380
C720
CB40
7380
0000
0600
0600
ENDCHAR
STARTCHAR Ygrave
ENCODING 7922
SWIDTH 591 0
DWIDTH 11 0
BBX 11 16 1 0
BITMAP
1800
0C00
0000
F0E0
6040
6080
3100
3200
3400
1800
1800
1800
3000
3000
3000
7800
ENDCHAR
STARTCHAR ygrave
ENCODING 7923
SWIDTH 468 0
DWIDTH 8 0
BBX 10 16 -2 -4
BITMAP
0C00
0600
0000
38C0
18C0
1880
1900
0D00
0E00
0E00
0C00
0C00
0800
1800
D000
6000
ENDCHAR
STARTCHAR uni1EF4
ENCODING 7924
SWIDTH 591 0
DWIDTH 11 0
BBX 11 16 1 -3
BITMAP
F0E0
6040
6080
3100
3200
3400
1800
1800
1800
3000
3000
3000
7800
0000
1800
1800
ENDCHAR
STARTCHAR uni1EF5
ENCODING 7925
SWIDTH 468 0
DWIDTH 8 0
BBX 10 16 -2 -7
BITMAP
38C0
18C0
1880
1900
0D00
0E00
0E00
0C00
0C00
0800
1800
D000
6000
0000
1800
1800
ENDCHAR
STARTCHAR uni1EF8
ENCODING 7928
SWIDTH 591 0
DWIDTH 11 0
BBX 11 16 1 0
BITMAP
1D00
2600
0000
F0E0
6040
6080
3100
3200
3400
1800
1800
1800
3000
3000
3000
7800
ENDCHAR
STARTCHAR uni1EF9
ENCODING 7929
SWIDTH 468 0
DWIDTH 8 0
BBX 10 16 -2 -4
BITMAP
0E80
1300
0000
38C0
18C0
1880
1900
0D00
0E00
0E00
0C00
0C00
0800
1800
D000
6000
ENDCHAR
STARTCHAR uni2000
ENCODING 8192
SWIDTH 500 0
DWIDTH 9 0
BBX 1 1 0 0
BITMAP
00
ENDCHAR
STARTCHAR uni2001
ENCODING 8193
SWIDTH 1000 0
DWIDTH 19 0
BBX 1 1 0 0
BITMAP
00
ENDCHAR
STARTCHAR uni2002
ENCODING 8194
SWIDTH 500 0
DWIDTH 9 0
BBX 1 1 0 0
BITMAP
00
ENDCHAR
STARTCHAR uni2003
ENCODING 8195
SWIDTH 1000 0
DWIDTH 19 0
BBX 1 1 0 0
BITMAP
00
ENDCHAR
STARTCHAR uni2004
ENCODING 8196
SWIDTH 333 0
DWIDTH 6 0
BBX 1 1 0 0
BITMAP
00
ENDCHAR
STARTCHAR uni2005
ENCODING 8197
SWIDTH 250 0
DWIDTH 5 0
BBX 1 1 0 0
BITMAP
00
ENDCHAR
STARTCHAR uni2006
ENCODING 8198
SWIDTH 167 0
DWIDTH 3 0
BBX 1 1 0 0
BITMAP
00
ENDCHAR
STARTCHAR uni2007
ENCODING 8199
SWIDTH 530 0
DWIDTH 10 0
BBX 1 1 0 0
BITMAP
00
ENDCHAR
STARTCHAR uni2008
ENCODING 8200
SWIDTH 265 0
DWIDTH 5 0
BBX 1 1 0 0
BITMAP
00
ENDCHAR
STARTCHAR uni2009
ENCODING 8201
SWIDTH 200 0
DWIDTH 4 0
BBX 1 1 0 0
BITMAP
00
ENDCHAR
STARTCHAR uni200A
ENCODING 8202
SWIDTH 100 0
DWIDTH 2 0
BBX 1 1 0 0
BITMAP
00
ENDCHAR
STARTCHAR uni200B
ENCODING 8203
SWIDTH 0 0
DWIDTH 0 0
BBX 1 1 0 0
BITMAP
00
ENDCHAR
STARTCHAR uni2010
ENCODING 8208
SWIDTH 392 0
DWIDTH 7 0
BBX 5 1 1 4
BITMAP
F8
ENDCHAR
STARTCHAR uni2011
ENCODING 8209
SWIDTH 392 0
DWIDTH 7 0
BBX 5 1 1 4
BITMAP
F8
ENDCHAR
STARTCHAR figuredash
ENCODING 8210
SWIDTH 500 0
DWIDTH 9 0
BBX 9 1 0 4
BITMAP
FF80
ENDCHAR
STARTCHAR endash
ENCODING 8211
SWIDTH 500 0
DWIDTH 9 0
BBX 9 1 0 4
BITMAP
FF80
ENDCHAR
STARTCHAR emdash
ENCODING 8212
SWIDTH 1000 0
DWIDTH 19 0
BBX 19 1 0 4
BITMAP
FFFFE0
ENDCHAR
STARTCHAR afii00208
ENCODING 8213
SWIDTH 1000 0
DWIDTH 19 0
BBX 19 1 0 4
BITMAP
FFFFE0
ENDCHAR
STARTCHAR quoteleft
ENCODING 8216
SWIDTH 216 0
DWIDTH 5 0
BBX 3 5 2 8
BITMAP
20
40
40
C0
C0
ENDCHAR
STARTCHAR quoteright
ENCODING 8217
SWIDTH 216 0
DWIDTH 5 0
BBX 3 5 1 8
BITMAP
60
60
40
40
80
ENDCHAR
STARTCHAR quotesinglbase
ENCODING 8218
SWIDTH 216 0
DWIDTH 5 0
BBX 3 5 -1 -3
BITMAP
60
60
40
40
80
ENDCHAR
STARTCHAR quotereversed
ENCODING 8219
SWIDTH 216 0
DWIDTH 5 0
BBX 3 5 1 8
BITMAP
C0
C0
40
40
20
ENDCHAR
STARTCHAR quotedblleft
ENCODING 8220
SWIDTH 402 0
DWIDTH 7 0
BBX 6 5 1 8
BITMAP
24
48
48
D8
D8
ENDCHAR
STARTCHAR quotedblright
ENCODING 8221
SWIDTH 402 0
DWIDTH 7 0
BBX 6 5 1 8
BITMAP
6C
6C
48
48
90
ENDCHAR
STARTCHAR quotedblbase
ENCODING 8222
SWIDTH 402 0
DWIDTH 8 0
BBX 6 5 -1 -3
BITMAP
6C
6C
48
48
90
ENDCHAR
STARTCHAR uni201F
ENCODING 8223
SWIDTH 402 0
DWIDTH 7 0
BBX 6 5 1 8
BITMAP
D8
D8
48
48
24
ENDCHAR
STARTCHAR dagger
ENCODING 8224
SWIDTH 500 0
DWIDTH 9 0
BBX 7 15 1 -2
BITMAP
18
18
10
10
FE
10
20
20
20
20
40
40
40
40
40
ENDCHAR
STARTCHAR daggerdbl
ENCODING 8225
SWIDTH 490 0
DWIDTH 9 0
BBX 8 15 1 -2
BITMAP
0C
0C
08
08
7F
08
18
18
10
10
FE
10
10
30
30
ENDCHAR
STARTCHAR bullet
ENCODING 8226
SWIDTH 500 0
DWIDTH 9 0
BBX 7 7 1 4
BITMAP
38
7C
FE
FE
FE
7C
38
ENDCHAR
STARTCHAR ellipsis
ENCODING 8230
SWIDTH 1000 0
DWIDTH 18 0
BBX 14 2 0 0
BITMAP
C30C
C30C
ENDCHAR
STARTCHAR perthousand
ENCODING 8240
SWIDTH 1200 0
DWIDTH 22 0
BBX 20 13 1 0
BITMAP
382000
47C000
C44000
848000
8D0000
890000
7270E0
048910
058B10
090A10
111A30
111220
20E1C0
ENDCHAR
STARTCHAR guilsinglleft
ENCODING 8249
SWIDTH 277 0
DWIDTH 5 0
BBX 4 7 1 1
BITMAP
10
20
40
C0
40
20
20
ENDCHAR
STARTCHAR guilsinglright
ENCODING 8250
SWIDTH 277 0
DWIDTH 5 0
BBX 4 7 0 1
BITMAP
40
40
20
30
20
40
80
ENDCHAR
STARTCHAR fraction
ENCODING 8260
SWIDTH 100 0
DWIDTH 2 0
BBX 9 13 -4 0
BITMAP
0080
0100
0100
0200
0400
0400
0800
1000
1000
2000
4000
4000
8000
ENDCHAR
STARTCHAR oneinferior
ENCODING 8321
SWIDTH 370 0
DWIDTH 7 0
BBX 4 8 1 -4
BITMAP
30
10
20
20
20
40
40
E0
ENDCHAR
STARTCHAR twoinferior
ENCODING 8322
SWIDTH 370 0
DWIDTH 7 0
BBX 6 8 0 -4
BITMAP
38
64
04
0C
18
60
C4
FC
ENDCHAR
STARTCHAR threeinferior
ENCODING 8323
SWIDTH 370 0
DWIDTH 7 0
BBX 6 8 0 -4
BITMAP
38
64
0C
38
08
08
D8
70
ENDCHAR
STARTCHAR uni20A5
ENCODING 8357
SWIDTH 912 0
DWIDTH 18 0
BBX 17 13 0 -2
BITMAP
002000
002000
73AE00
34D300
38E300
71C600
618600
618600
C38C80
C38D00
C30E00
010000
010000
ENDCHAR
STARTCHAR uni20A6
ENCODING 8358
SWIDTH 763 0
DWIDTH 14 0
BBX 14 13 0 0
BITMAP
3C1C
1C08
1C08
1608
3FF0
2310
2310
2190
3FF0
40E0
40E0
4060
E060
ENDCHAR
STARTCHAR uni20A9
ENCODING 8361
SWIDTH 946 0
DWIDTH 18 0
BBX 18 13 1 0
BITMAP
F061C0
606080
60E080
60E100
67FD00
626200
323200
343400
37FC00
383800
383800
303000
303000
ENDCHAR
STARTCHAR Euro
ENCODING 8364
SWIDTH 661 0
DWIDTH 13 0
BBX 13 13 -1 0
BITMAP
01F0
0618
0C08
1800
FF80
3000
3000
3000
FF80
3010
3030
1860
0F80
ENDCHAR
STARTCHAR uni20AD
ENCODING 8365
SWIDTH 650 0
DWIDTH 12 0
BBX 12 13 0 0
BITMAP
3E70
1820
1840
1880
3100
3200
FFF0
3600
6300
6380
6180
60C0
F0E0
ENDCHAR
STARTCHAR uni2103
ENCODING 8451
SWIDTH 1041 0
DWIDTH 20 0
BBX 18 13 1 0
BITMAP
700F80
8830C0
886040
88C000
70C000
018000
018000
018000
018000
018080
018180
00C300
007C00
ENDCHAR
STARTCHAR uni2109
ENCODING 8457
SWIDTH 951 0
DWIDTH 18 0
BBX 17 13 1 0
BITMAP
70FF80
886180
886080
886000
70C000
00C200
00FE00
00C200
018000
018000
018000
018000
03C000
ENDCHAR
STARTCHAR trademark
ENCODING 8482
SWIDTH 1100 0
DWIDTH 21 0
BBX 17 8 2 5
BITMAP
FEC180
926300
106300
105500
104900
104900
104100
38E380
ENDCHAR
STARTCHAR uni212A
ENCODING 8490
SWIDTH 650 0
DWIDTH 12 0
BBX 12 13 0 0
BITMAP
3E70
1820
1840
1880
3100
3200
3C00
3600
6300
6380
6180
60C0
F0E0
ENDCHAR
STARTCHAR uni212B
ENCODING 8491
SWIDTH 624 0
DWIDTH 12 0
BBX 12 14 -1 0
BITMAP
0180
0240
0180
0180
0380
0380
04C0
08C0
08C0
1FC0
2060
2060
4060
E0F0
ENDCHAR
STARTCHAR uni2132
ENCODING 8498
SWIDTH 571 0
DWIDTH 11 0
BBX 11 13 0 0
BITMAP
01E0
00C0
00C0
00C0
00C0
2180
3F80
2180
0180
0300
8300
C300
FF80
ENDCHAR
STARTCHAR minus
ENCODING 8722
SWIDTH 570 0
DWIDTH 11 0
BBX 9 1 2 4
BITMAP
FF80
ENDCHAR
STARTCHAR fraction
ENCODING 8725
SWIDTH 100 0
DWIDTH 2 0
BBX 9 13 -4 0
BITMAP
0080
0100
0100
0200
0400
0400
0800
1000
1000
2000
4000
4000
8000
ENDCHAR
STARTCHAR periodcentered
ENCODING 8729
SWIDTH 265 0
DWIDTH 5 0
BBX 2 2 1 4
BITMAP
C0
C0
ENDCHAR
STARTCHAR uni2236
ENCODING 8758
SWIDTH 265 0
DWIDTH 5 0
BBX 3 9 0 0
BITMAP
60
60
00
00
00
00
00
C0
C0
ENDCHAR
STARTCHAR uni2259
ENCODING 8793
SWIDTH 570 0
DWIDTH 10 0
BBX 9 8 0 2
BITMAP
0C00
1600
0000
FF80
0000
0000
0000
FF80
ENDCHAR
STARTCHAR uni225A
ENCODING 8794
SWIDTH 570 0
DWIDTH 10 0
BBX 9 8 0 2
BITMAP
1A00
0C00
0000
FF80
0000
0000
0000
FF80
ENDCHAR
STARTCHAR notequal
ENCODING 8800
SWIDTH 570 0
DWIDTH 10 0
BBX 9 13 0 -2
BITMAP
0200
0200
0200
0400
FF80
0400
0800
0800
FF80
0800
1000
1000
1000
ENDCHAR
STARTCHAR equivalence
ENCODING 8801
SWIDTH 570 0
DWIDTH 10 0
BBX 9 5 0 2
BITMAP
FF80
0000
FF80
0000
FF80
ENDCHAR
STARTCHAR uni2262
ENCODING 8802
SWIDTH 570 0
DWIDTH 10 0
BBX 9 13 0 -2
BITMAP
0200
0200
0200
0400
FF80
0400
FF80
0800
FF80
0800
1000
1000
1000
ENDCHAR
STARTCHAR lessequal
ENCODING 8804
SWIDTH 570 0
DWIDTH 10 0
BBX 9 11 0 -2
BITMAP
0080
0300
0C00
3000
C000
3000
0C00
0300
0080
0000
FF80
ENDCHAR
STARTCHAR greaterequal
ENCODING 8805
SWIDTH 570 0
DWIDTH 10 0
BBX 9 11 0 -2
BITMAP
8000
6000
1800
0600
0180
0600
1800
6000
8000
0000
FF80
ENDCHAR
STARTCHAR uni226E
ENCODING 8814
SWIDTH 570 0
DWIDTH 10 0
BBX 9 13 0 -2
BITMAP
0200
0200
0280
0700
0C00
3400
C800
3800
0C00
0B00
1080
1000
1000
ENDCHAR
STARTCHAR uni226F
ENCODING 8815
SWIDTH 570 0
DWIDTH 10 0
BBX 9 13 0 -2
BITMAP
0200
0200
8200
6400
1C00
0600
0980
0E00
1800
6800
9000
1000
1000
ENDCHAR
STARTCHAR uni2270
ENCODING 8816
SWIDTH 570 0
DWIDTH 10 0
BBX 9 13 0 -3
BITMAP
0200
0280
0300
0C00
3400
C400
3800
0C00
0B00
0880
1000
FF80
1000
ENDCHAR
STARTCHAR uni2271
ENCODING 8817
SWIDTH 570 0
DWIDTH 10 0
BBX 9 13 0 -3
BITMAP
0200
8200
6200
1C00
0600
0580
0E00
1800
6800
8800
1000
FF80
1000
ENDCHAR
STARTCHAR fi
ENCODING -1
SWIDTH 607 0
DWIDTH 11 0
BBX 14 18 -3 -4
BITMAP
00F8
010C
030C
0300
0300
0FF8
0618
0618
0630
0C30
0C30
0C64
0C68
1870
1800
1800
D000
6000
ENDCHAR
STARTCHAR fl
ENCODING -1
SWIDTH 603 0
DWIDTH 11 0
BBX 14 18 -3 -4
BITMAP
00F4
011C
030C
0318
0318
0FD8
0618
0630
0630
0C30
0C60
0C64
0C68
1870
1800
1800
D000
6000
ENDCHAR
ENDFONT
